<svg width="167" height="168" viewBox="0 0 167 168" fill="none" xmlns="http://www.w3.org/2000/svg">
<mask id="mask0_1801_11320" style="mask-type:alpha" maskUnits="userSpaceOnUse" x="0" y="0" width="167" height="168">
<path d="M167 0L167 168L-7.34351e-06 168C-7.34351e-06 168 -6.36183e-06 145.542 -3.73805e-06 85.5167C-1.11428e-06 25.4917 0 -7.2998e-06 0 -7.2998e-06L167 0Z" fill="#222120"/>
</mask>
<g mask="url(#mask0_1801_11320)">
<path d="M43.766 242.984L55.7697 233.399L55.7697 214.088L69.3703 227.739L84.6141 226.004L86.3499 210.704L72.7493 197.054L91.9892 197.054L101.54 185.006L92.2592 173.306L107.017 174.987L120.618 161.336L120.618 180.647L132.621 190.232L144.625 180.647L144.625 161.336L158.226 174.987L173.469 173.245L175.197 157.945L161.597 144.294L180.837 144.294L190.387 132.246L180.837 120.198L161.597 120.198L175.197 106.548L173.508 91.6038L185.226 100.965L197.23 91.3792L197.23 72.0685L210.831 85.7192L226.074 83.977L227.802 68.6771L214.202 55.0264L233.449 55.0265L243 42.9786L233.449 30.9307L214.21 30.9307L227.81 17.28L226.082 1.9801L210.838 0.245702L197.238 13.8964L197.238 -5.41433L185.234 -15L173.23 -5.41433L173.23 13.8964L159.63 0.2457L144.386 1.98009L142.65 17.28L156.251 30.9307L137.011 30.9307L128.548 41.6003L94.5118 53.2146L91.7114 91.3483L58.7861 97.3567L42.5008 128.042L31.7623 136.621L31.7623 155.931L18.1616 142.281L2.91785 144.023L1.1898 159.323L14.7904 172.974L-4.44949 172.974L-14 185.021L-4.44949 197.069L14.7904 197.069L1.18979 210.72L2.91785 226.02L18.1616 227.754L31.7623 214.104L31.7623 233.414L43.766 243L43.766 242.984ZM5.95736 210.495L17.7065 198.703C18.2542 200.825 18.7479 204.626 16.5725 207.816C14.5513 210.782 9.35172 210.89 5.95736 210.495ZM8.46456 188.173C12.2215 188.877 14.559 191.92 15.6776 193.81L-0.931696 193.81C1.18978 191.123 4.93133 187.507 8.46456 188.173ZM9.11257 185.006C14.6747 183.937 17.7142 179.315 18.8945 177.077L26.7941 185.006L18.8945 192.935C17.7219 190.689 14.6747 186.074 9.11257 185.006ZM15.6776 176.195C14.559 178.084 12.2215 181.127 8.46456 181.831C4.93905 182.497 1.1975 178.881 -0.931695 176.195L15.6699 176.195L15.6776 176.195ZM16.5725 162.195C18.7325 165.362 18.2388 169.172 17.6988 171.301L5.95736 159.516C9.35172 159.122 14.5436 159.222 16.5725 162.203L16.5725 162.195ZM30.1191 158.843C28.0053 159.393 24.2175 159.888 21.0391 157.705C18.0845 155.676 17.9765 150.457 18.3699 147.05L30.1191 158.843ZM157.138 34.1749C156.019 36.0642 153.682 39.1071 149.925 39.8117C146.399 40.4776 142.658 36.8617 140.529 34.1749L157.13 34.1749L157.138 34.1749ZM158.033 20.1759C160.193 23.3427 159.699 27.1521 159.159 29.2814L147.418 17.4968C150.812 17.1019 156.004 17.2025 158.033 20.1836L158.033 20.1759ZM171.579 16.8232C169.466 17.3729 165.678 17.8685 162.499 15.685C159.545 13.6563 159.437 8.43765 159.83 5.03078L171.579 16.8232ZM210.63 5.03854C211.024 8.4454 210.916 13.6563 207.961 15.6927C204.806 17.8607 201.01 17.3652 198.889 16.8232L210.63 5.03854ZM223.043 17.4891L211.294 29.2814C210.746 27.1599 210.252 23.3582 212.428 20.1681C214.449 17.2026 219.648 17.0942 223.043 17.4891ZM220.535 39.8117C216.778 39.1071 214.441 36.0642 213.322 34.1749L229.932 34.1749C227.81 36.8617 224.069 40.4776 220.535 39.8117ZM219.887 42.9863C214.325 44.0626 211.286 48.6773 210.105 50.915L202.206 42.9863L210.105 35.0576C211.278 37.303 214.325 41.9178 219.887 42.9863ZM213.322 51.7899C214.441 49.9007 216.778 46.8578 220.535 46.1532C224.061 45.4873 227.802 49.1032 229.932 51.7899L213.33 51.7899L213.322 51.7899ZM212.428 65.7968C210.267 62.63 210.761 58.8205 211.301 56.6912L223.043 68.4758C219.648 68.8707 214.456 68.7701 212.428 65.7891L212.428 65.7968ZM198.881 69.1417C200.995 68.592 204.782 68.0964 207.961 70.2799C210.916 72.3085 211.024 77.5272 210.63 80.9341L198.881 69.1417ZM170.438 106.757L158.689 118.549C158.141 116.427 157.647 112.626 159.823 109.436C161.844 106.47 167.043 106.362 170.438 106.757ZM167.93 129.079C164.173 128.375 161.836 125.332 160.717 123.442L177.327 123.442C175.205 126.129 171.464 129.745 167.93 129.079ZM167.275 132.246C161.713 133.322 158.673 137.937 157.5 140.175L149.601 132.246L157.5 124.317C158.673 126.563 161.72 131.178 167.275 132.246ZM160.717 141.057C161.836 139.168 164.173 136.125 167.93 135.421C171.456 134.755 175.197 138.371 177.327 141.057L160.725 141.057L160.717 141.057ZM159.823 155.064C157.662 151.897 158.156 148.088 158.696 145.959L170.438 157.743C167.043 158.138 161.851 158.038 159.823 155.057L159.823 155.064ZM146.276 158.409C148.39 157.859 152.177 157.364 155.356 159.547C158.31 161.576 158.418 166.795 158.025 170.202L146.276 158.409ZM107.225 170.202C106.832 166.795 106.94 161.576 109.894 159.547C113.05 157.379 116.845 157.875 118.967 158.417L107.225 170.202ZM79.0674 181.831C75.3105 181.127 72.973 178.084 71.8544 176.195L88.4636 176.195C86.3422 178.881 82.6007 182.497 79.0674 181.831ZM78.4194 185.006C72.8573 186.082 69.8178 190.697 68.6452 192.935L60.7455 185.006L68.6452 177.077C69.8178 179.323 72.865 183.937 78.4194 185.006ZM71.8621 193.81C72.9807 191.92 75.3182 188.877 79.0751 188.173C82.6006 187.507 86.3422 191.123 88.4714 193.81L71.8698 193.81L71.8621 193.81ZM70.9672 207.816C68.8072 204.65 69.3009 200.84 69.8409 198.711L81.5823 210.495C78.188 210.89 72.9961 210.79 70.9672 207.809L70.9672 207.816ZM57.4206 211.161C59.5344 210.612 63.3222 210.116 66.5005 212.3C69.4552 214.328 69.5632 219.547 69.1697 222.954L57.4206 211.161ZM19.2648 209.597C22.4432 204.89 21.34 199.47 20.5917 197.046L31.7623 197.046L31.7623 208.266C29.3476 207.514 23.9475 206.407 19.2648 209.597ZM34.9946 197.054L38.7978 197.054L41.4902 199.756L34.9946 206.276L34.9946 197.054ZM34.9946 181.359L40.1325 176.202L47.3995 176.202L52.5373 181.359L52.5373 188.653L47.3995 193.81L40.1325 193.81L34.9946 188.653L34.9946 181.359ZM31.7623 185.416L31.3534 185.006L31.7623 184.596L31.7623 185.416ZM94.8127 106.757C98.207 106.362 103.407 106.47 105.428 109.436C107.588 112.602 107.094 116.412 106.554 118.541L94.8127 106.757ZM138.554 55.0342L156.258 55.0342L142.658 68.6849L144.347 83.6286L132.629 74.2675L120.625 83.8532L120.625 103.164L108.614 91.1082L138.554 55.0342ZM114.469 78.9906L99.0865 56.9854L126.133 64.9296L114.469 78.9829L114.469 78.9906ZM150.573 42.9863C156.135 41.9178 159.175 37.2953 160.347 35.0576L168.247 42.9863L160.347 50.915C159.175 48.6696 156.127 44.0548 150.573 42.9863ZM190.202 30.9384L187.51 28.2362L194.005 21.7167L194.005 30.9307L190.202 30.9307L190.202 30.9384ZM194.005 34.1749L194.005 34.7556L193.427 34.1749L194.005 34.1749ZM185.643 30.9384L184.825 30.9384L185.234 30.5281L185.643 30.9384ZM182.951 28.2362L180.258 30.9384L176.455 30.9384L176.455 21.7244L182.951 28.2439L182.951 28.2362ZM177.327 18.0156C179.564 16.8386 184.162 13.7802 185.226 8.20537C186.299 13.788 190.896 16.8386 193.126 18.0156L185.226 25.9442L177.327 18.0156ZM177.034 34.1749L176.455 34.7556L176.455 34.1749L177.034 34.1749ZM181.593 34.1749L188.86 34.1749L193.998 39.3317L193.998 46.6255L188.86 51.7822L181.593 51.7822L176.455 46.6255L176.455 39.3317L181.593 34.1749ZM197.238 42.576L197.647 42.9863L197.238 43.3967L197.238 42.576ZM141.4 135.901L136.263 141.057L128.988 141.057L123.85 135.901L123.85 128.607L128.988 123.45L136.255 123.45L141.393 128.607L141.393 135.901L141.4 135.901ZM144.625 131.843L145.034 132.254L144.625 132.664L144.625 131.843ZM94.8127 157.743L106.562 145.951C107.11 148.072 107.603 151.874 105.428 155.064C103.407 158.03 98.207 158.138 94.8127 157.743ZM97.3199 135.421C101.077 136.125 103.414 139.168 104.533 141.057L87.9236 141.057C90.0451 138.371 93.7866 134.755 97.3199 135.421ZM97.9679 132.246C103.53 131.17 106.57 126.555 107.742 124.317L115.642 132.246L107.742 140.175C106.57 137.929 103.522 133.315 97.9679 132.246ZM104.541 123.442C103.43 125.324 101.108 128.367 97.3199 129.079C93.7944 129.745 90.0528 126.129 87.9236 123.442L104.541 123.442ZM132.621 94.3834C131.78 89.8306 127.483 86.0599 125.192 84.341L132.621 78.4022L140.05 84.341C137.759 86.0599 133.462 89.8306 132.614 94.3834L132.621 94.3834ZM127.653 120.198L123.85 120.198L123.85 110.984L130.346 117.504L127.653 120.206L127.653 120.198ZM132.621 119.796L133.03 120.206L132.212 120.206L132.621 119.796ZM124.429 123.442L123.85 124.023L123.85 123.442L124.429 123.442ZM124.722 107.283C126.959 106.106 131.557 103.048 132.621 97.4728C133.694 103.055 138.291 106.106 140.521 107.283L132.621 115.212L124.722 107.283ZM129.466 96.8147C128.764 100.585 125.732 102.932 123.85 104.054L123.85 87.3839C126.527 89.5132 130.13 93.2762 129.466 96.8147ZM120.625 108.986L120.625 120.206L109.447 120.206C110.195 117.79 111.298 112.362 108.12 107.662C112.811 110.853 118.211 109.745 120.618 108.994L120.625 108.986ZM120.625 123.442L120.625 127.26L117.933 129.962L111.437 123.442L120.625 123.442ZM120.625 131.843L120.625 132.664L120.216 132.254L120.625 131.843ZM117.933 134.538L120.625 137.24L120.625 141.057L111.437 141.057L117.933 134.538ZM123.85 140.477L124.429 141.057L123.85 141.057L123.85 140.477ZM109.447 144.294L120.625 144.294L120.625 155.513C118.218 154.762 112.811 153.655 108.12 156.845C111.298 152.137 110.195 146.717 109.447 144.294ZM127.653 144.294L130.346 146.996L123.85 153.516L123.85 144.294L127.653 144.294ZM132.22 144.294L133.038 144.294L132.629 144.704L132.22 144.294ZM134.905 146.996L137.597 144.294L141.4 144.294L141.4 153.516L134.905 146.996ZM140.529 157.217C138.291 158.394 133.694 161.452 132.629 167.027C131.557 161.444 126.959 158.394 124.729 157.217L132.629 149.288L140.529 157.217ZM140.822 141.057L141.4 140.477L141.4 141.057L140.822 141.057ZM140.822 123.442L141.4 123.442L141.4 124.023L140.822 123.442ZM137.597 120.198L134.905 117.496L141.4 110.976L141.4 120.19L137.597 120.19L137.597 120.198ZM144.625 108.986C147.032 109.738 152.44 110.845 157.122 107.655C155.487 110.07 154.986 112.68 154.986 114.979C154.986 117.147 155.433 119.029 155.796 120.198L144.625 120.198L144.625 108.979L144.625 108.986ZM135.784 96.8147C135.121 93.2762 138.723 89.5132 141.4 87.3839L141.4 104.062C139.526 102.947 136.494 100.616 135.784 96.8147ZM180.258 55.0342L182.951 57.7364L176.455 64.256L176.455 55.042L180.258 55.042L180.258 55.0342ZM176.455 51.7899L176.455 51.2092L177.034 51.7899L176.455 51.7899ZM184.825 55.0342L185.643 55.0342L185.234 55.4446L184.825 55.0342ZM173.23 66.2459C170.823 65.4948 165.416 64.3876 160.733 67.5776C163.911 62.87 162.808 57.45 162.06 55.0342L173.238 55.0342L173.238 66.2536L173.23 66.2459ZM158.033 65.7968C156.012 68.7623 150.812 68.8707 147.418 68.4758L159.159 56.6912C159.699 58.8205 160.193 62.63 158.033 65.7968ZM158.55 69.7611C156.891 72.1847 156.444 75.3824 156.444 78.1157C156.444 79.6797 156.59 81.0967 156.737 82.1342L147.302 81.058L146.23 71.5884C149.061 71.9988 154.746 72.386 158.55 69.7689L158.55 69.7611ZM162.499 70.2799C165.655 68.1119 169.45 68.6075 171.572 69.1495L159.83 80.9341C159.437 77.5272 159.537 72.3163 162.507 70.2799L162.499 70.2799ZM185.234 60.0206L193.134 67.9493C190.896 69.1262 186.299 72.1847 185.234 77.7595C184.162 72.1769 179.564 69.1262 177.334 67.9493L185.234 60.0206ZM187.51 57.7287L190.202 55.0264L194.005 55.0264L194.005 64.2405L187.51 57.721L187.51 57.7287ZM193.427 51.7899L194.005 51.2092L194.005 51.7899L193.427 51.7899ZM173.23 43.3967L172.821 42.9863L173.23 42.576L173.23 43.3967ZM173.23 47.9727L173.23 51.7899L164.042 51.7899L170.538 45.2705L173.23 47.9727ZM149.933 46.1532C153.69 46.8578 156.027 49.9007 157.146 51.7899L140.536 51.7899C142.658 49.1032 146.399 45.4873 149.933 46.1532ZM118.974 106.091C116.861 106.64 113.073 107.136 109.894 104.952C106.932 102.924 106.832 97.7051 107.225 94.2983L118.974 106.091ZM94.8975 132.246C90.3614 133.09 86.6045 137.403 84.8919 139.702L78.9748 132.246L84.8919 124.79C86.6045 127.089 90.3614 131.402 94.8975 132.246ZM55.7697 180.012L55.7697 176.195L64.9576 176.195L58.462 182.714L55.7697 180.012ZM56.1786 185.006L55.7697 185.416L55.7697 184.596L56.1786 185.006ZM46.0495 170.256L52.5451 163.736L52.5451 172.95L48.7418 172.95L46.0495 170.248L46.0495 170.256ZM44.1748 172.958L43.3571 172.958L43.766 172.548L44.1748 172.958ZM68.2672 160.407C66.6317 162.823 66.1302 165.432 66.1302 167.732C66.1302 169.9 66.5777 171.781 66.9403 172.95L55.7697 172.95L55.7697 161.731C58.1766 162.482 63.5845 163.589 68.2672 160.399L68.2672 160.407ZM52.5451 176.195L52.5451 176.775L51.9665 176.195L52.5451 176.195ZM70.9672 162.195C72.9884 159.23 78.188 159.122 81.5823 159.516L69.8332 171.309C69.2855 169.187 68.7917 165.386 70.9672 162.195ZM70.4426 158.231C73.0578 154.414 72.6721 148.7 72.2632 145.858L81.6981 146.934L82.7704 156.404C79.9392 155.993 74.2382 155.606 70.4426 158.231ZM66.4928 157.705C63.3376 159.873 59.5421 159.377 57.4206 158.835L69.162 147.05C69.5555 150.457 69.4475 155.668 66.4928 157.705ZM43.766 167.964L35.8664 160.035C38.1036 158.858 42.7014 155.8 43.766 150.225C44.8383 155.808 49.4361 158.858 51.6656 160.035L43.766 167.964ZM41.4825 170.256L38.7902 172.958L34.9869 172.958L34.9869 163.736L41.4825 170.256ZM35.5655 176.195L34.9869 176.775L34.9869 176.195L35.5655 176.195ZM48.7418 197.054L52.545 197.054L52.545 206.268L46.0495 199.748L48.7418 197.046L48.7418 197.054ZM43.766 197.464L43.3571 197.054L44.1748 197.054L43.766 197.464ZM51.9665 193.81L52.5451 193.229L52.5451 193.81L51.9665 193.81ZM35.5655 193.81L34.9869 193.81L34.9869 193.229L35.5655 193.81ZM51.6733 209.977C49.4361 211.154 44.8383 214.212 43.7737 219.787C42.7014 214.204 38.1036 211.154 35.8741 209.977L43.7737 202.048L51.6733 209.977ZM46.9289 220.437C47.6309 216.666 50.6627 214.32 52.545 213.198L52.545 229.868C49.8681 227.739 46.2655 223.984 46.9289 220.437ZM55.7697 197.054L66.9403 197.054C66.5777 198.231 66.1302 200.112 66.1302 202.273C66.1302 204.564 66.6317 207.181 68.2672 209.597C63.5768 206.407 58.1766 207.514 55.7697 208.266L55.7697 197.046L55.7697 197.054ZM55.7697 193.81L55.7697 189.992L58.462 187.29L64.9576 193.81L55.7697 193.81ZM86.3499 159.307L84.6527 144.302L103.653 144.302L90.0528 157.952L91.75 172.958L72.757 172.958L86.3576 159.307L86.3499 159.307ZM93.6169 160.848C96.4481 161.259 102.134 161.646 105.937 159.029C104.278 161.452 103.831 164.65 103.831 167.383C103.831 168.947 103.977 170.364 104.124 171.402L94.6892 170.325L93.6169 160.856L93.6169 160.848ZM129.466 167.677C130.13 171.216 126.527 174.971 123.85 177.108L123.85 160.43C125.725 161.545 128.756 163.876 129.466 167.677ZM135.784 167.677C136.486 163.907 139.518 161.561 141.4 160.438L141.4 177.108C138.723 174.979 135.113 171.216 135.784 167.677ZM144.625 144.294L155.796 144.294C155.433 145.471 154.986 147.352 154.986 149.513C154.986 151.805 155.487 154.422 157.122 156.837C152.432 153.647 147.032 154.755 144.625 155.506L144.625 144.286L144.625 144.294ZM144.625 141.057L144.625 137.24L147.317 134.538L153.813 141.057L144.625 141.057ZM147.317 129.962L144.625 127.26L144.625 123.442L153.813 123.442L147.317 129.962ZM146.284 106.083L158.025 94.2983C158.418 97.7051 158.318 102.916 155.348 104.952C152.193 107.12 148.397 106.625 146.276 106.083L146.284 106.083ZM144.625 103.164L144.625 84.008L159.622 85.7192L173.223 72.0685L173.223 91.2243L158.226 89.5132L144.625 103.164ZM176.455 71.1781C178.337 72.3008 181.369 74.6469 182.071 78.4177C182.735 81.9562 179.132 85.7192 176.455 87.8485L176.455 71.1781ZM188.389 78.4177C189.091 74.6469 192.123 72.3008 194.005 71.1781L194.005 87.8485C191.328 85.7192 187.726 81.9639 188.389 78.4177ZM197.238 55.0342L208.408 55.0342C208.046 56.2111 207.598 58.0926 207.598 60.2529C207.598 62.5448 208.1 65.1619 209.735 67.5777C205.045 64.3876 199.645 65.4948 197.238 66.2459L197.238 55.0264L197.238 55.0342ZM197.238 51.7899L197.238 47.9727L199.93 45.2705L206.426 51.7899L197.238 51.7899ZM199.922 40.6944L197.23 37.9921L197.23 34.1749L206.418 34.1749L199.922 40.6944ZM197.238 30.9384L197.238 19.719C199.645 20.4701 205.053 21.5773 209.735 18.3872C208.1 20.803 207.598 23.4123 207.598 25.712C207.598 27.88 208.046 29.7615 208.408 30.9307L197.238 30.9307L197.238 30.9384ZM188.389 7.55497C187.734 4.00874 191.328 0.253427 194.005 -1.87586L194.005 14.7945C192.123 13.6718 189.091 11.3257 188.389 7.55497ZM182.071 7.55497C181.369 11.3257 178.337 13.6718 176.455 14.7945L176.455 -1.87586C179.132 0.253427 182.735 4.01648 182.071 7.55497ZM173.23 30.9384L162.052 30.9384C162.8 28.5226 163.903 23.0949 160.725 18.395C165.416 21.585 170.816 20.4778 173.223 19.7268L173.223 30.9462L173.23 30.9384ZM173.23 34.1749L173.23 37.9921L170.538 40.6944L164.042 34.1749L173.23 34.1749ZM147.51 42.9863C142.974 43.8303 139.217 48.1431 137.505 50.4427L131.588 42.9863L137.505 35.5299C139.217 37.8295 142.974 42.1501 147.51 42.9863ZM135.715 53.3927L128.386 62.2196L101.401 54.2909L128.972 44.8833L135.715 53.385L135.715 53.3927ZM112.332 81.569L105.605 89.6758L94.9901 90.8837L97.2581 59.9974L112.332 81.5613L112.332 81.569ZM104.132 93.0981C103.985 94.1357 103.839 95.5449 103.839 97.1167C103.839 99.8499 104.286 103.048 105.945 105.471C102.141 102.854 96.4558 103.241 93.6246 103.652L94.6969 94.1821L104.132 93.1059L104.132 93.0981ZM103.646 120.198L84.4058 120.198L74.8553 132.246L84.1358 143.946L69.378 142.265L55.7774 155.916L55.7774 138.146L91.642 108.143L103.653 120.198L103.646 120.198ZM66.3231 125.107L61.7561 102.08L79.376 114.19L66.3231 125.107ZM63.4996 127.469L54.1342 135.304L45.8258 128.669L58.8632 104.108L63.4996 127.476L63.4996 127.469ZM52.5451 156.806C50.6627 155.684 47.6309 153.338 46.9289 149.567C46.2655 146.021 49.8681 142.265 52.5451 140.136L52.5451 156.806ZM40.6108 149.575C39.9087 153.345 36.8769 155.691 34.9946 156.814L34.9946 140.144C37.6715 142.273 41.2742 146.036 40.6108 149.575ZM31.7623 172.958L20.584 172.958C21.3323 170.534 22.4355 165.115 19.2571 160.407C23.9475 163.597 29.3476 162.49 31.7546 161.739L31.7546 172.958L31.7623 172.958ZM31.7623 176.195L31.7623 180.012L29.0699 182.714L22.5743 176.195L31.7623 176.195ZM29.0776 187.298L31.77 190L31.77 193.817L22.582 193.817L29.0776 187.298ZM30.1114 211.169L18.3699 222.954C17.9765 219.547 18.0845 214.336 21.0391 212.3C24.1944 210.132 27.9899 210.627 30.1114 211.169ZM40.6108 220.437C41.2742 223.976 37.6715 227.739 34.9946 229.868L34.9946 213.198C36.8769 214.32 39.9087 216.666 40.6108 220.437ZM36.3369 232.911C38.6281 231.192 42.9251 227.421 43.766 222.869C44.6068 227.421 48.9115 231.192 51.2027 232.911L43.766 238.85L36.3369 232.911ZM72.2632 224.154C72.6721 221.312 73.0578 215.59 70.4426 211.781C74.2459 214.406 79.9392 214.018 82.7704 213.608L81.698 223.078L72.2632 224.154ZM91.4954 192.462C89.7828 190.163 86.0259 185.842 81.4898 185.006C86.0259 184.162 89.7828 179.849 91.4954 177.55L97.4124 185.006L91.4954 192.462ZM125.192 180.151C127.483 178.432 131.78 174.654 132.621 170.109C133.462 174.661 137.767 178.432 140.058 180.151L132.629 186.09L125.192 180.151ZM161.119 171.402C161.527 168.56 161.913 162.838 159.298 159.029C163.101 161.653 168.794 161.266 171.626 160.856L170.553 170.325L161.119 171.402ZM180.351 139.71C178.638 137.411 174.881 133.098 170.345 132.254C174.881 131.41 178.638 127.097 180.351 124.797L186.268 132.254L180.351 139.71ZM171.633 103.652C168.802 103.241 163.101 102.854 159.306 105.479C161.921 101.662 161.535 95.9475 161.126 93.1059L170.561 94.1821L171.633 103.652ZM177.797 90.8914C180.088 89.1725 184.385 85.4017 185.226 80.8489C186.067 85.4017 190.372 89.1725 192.663 90.8914L185.234 96.8302L177.805 90.8914L177.797 90.8914ZM213.724 82.1342C214.132 79.2926 214.518 73.5706 211.903 69.7611C215.706 72.386 221.399 71.9988 224.231 71.5884L223.158 81.058L213.724 82.1342ZM232.963 50.4427C231.251 48.1431 227.494 43.8225 222.958 42.9863C227.494 42.1423 231.251 37.8296 232.963 35.5299L238.88 42.9863L232.963 50.4427ZM224.238 14.3842C221.407 13.9738 215.706 13.5866 211.911 16.2115C214.526 12.3942 214.14 6.68001 213.731 3.83838L223.166 4.91465L224.238 14.3842ZM192.663 -4.9188C190.372 -3.19988 186.075 0.570892 185.226 5.1237C184.385 0.570892 180.088 -3.19989 177.797 -4.9188L185.226 -10.8576L192.655 -4.9188L192.663 -4.9188ZM156.737 3.83838C156.59 4.87592 156.444 6.28512 156.444 7.85693C156.444 10.5902 156.891 13.7802 158.55 16.2115C154.746 13.5944 149.061 13.9815 146.23 14.3919L147.302 4.92237L156.737 3.84613L156.737 3.83838ZM91.3874 94.7009L90.2071 105.131L81.9526 112.037L64.001 99.695L91.3952 94.7009L91.3874 94.7009ZM51.2027 137.101C48.9115 138.82 44.6069 142.591 43.766 147.143C42.9251 142.591 38.6281 138.82 36.3369 137.101L43.766 131.162L51.2027 137.101ZM15.2764 145.858C15.1298 146.896 14.9833 148.305 14.9833 149.877C14.9833 152.61 15.4307 155.808 17.0893 158.231C13.2861 155.614 7.60052 156.001 4.76931 156.412L5.84162 146.942L15.2841 145.866L15.2764 145.858ZM-3.96348 177.542C-2.25086 179.841 1.50608 184.162 6.0422 184.998C1.50608 185.842 -2.25086 190.155 -3.96348 192.455L-9.88046 184.998L-3.96348 177.542ZM4.76159 213.6C7.59279 214.011 13.2784 214.398 17.0816 211.781C15.423 214.204 14.9756 217.402 14.9756 220.135C14.9756 221.699 15.1221 223.116 15.2687 224.154L5.82619 223.078L4.7539 213.608L4.76159 213.6Z" fill="#FFC36C" fill-opacity="0.25"/>
</g>
</svg>
