<svg width="167" height="168" viewBox="0 0 167 168" fill="none" xmlns="http://www.w3.org/2000/svg">
<mask id="mask0_1801_11317" style="mask-type:alpha" maskUnits="userSpaceOnUse" x="0" y="0" width="167" height="168">
<path d="M0 0L-7.34351e-06 168L167 168C167 168 167 145.542 167 85.5167C167 25.4917 167 7.2998e-06 167 7.2998e-06L0 0Z" fill="#222120"/>
</mask>
<g mask="url(#mask0_1801_11317)">
<path d="M123.234 242.985L111.23 233.399L111.23 214.088L97.6297 227.739L82.3859 226.004L80.6501 210.705L94.2507 197.054L75.0108 197.054L65.4603 185.006L74.7408 173.306L59.983 174.987L46.3824 161.336L46.3824 180.647L34.3787 190.232L22.375 180.647L22.375 161.336L8.77434 174.987L-6.46945 173.245L-8.19749 157.945L5.40312 144.294L-13.8368 144.294L-23.3873 132.246L-13.8368 120.198L5.40312 120.198L-8.19749 106.548L-6.50802 91.6038L-18.2263 100.965L-30.23 91.3792L-30.23 72.0685L-43.8306 85.7192L-59.0744 83.977L-60.8025 68.6771L-47.2019 55.0265L-66.4495 55.0265L-76 42.9786L-66.4495 30.9307L-47.2096 30.9307L-60.8102 17.28L-59.0822 1.9801L-43.8384 0.245705L-30.2377 13.8964L-30.2377 -5.41433L-18.234 -15L-6.23029 -5.41433L-6.23029 13.8964L7.37032 0.245707L22.6141 1.9801L24.3499 17.28L10.7493 30.9307L29.9892 30.9307L38.4519 41.6004L72.4882 53.2147L75.2886 91.3483L108.214 97.3567L124.499 128.042L135.238 136.621L135.238 155.931L148.838 142.281L164.082 144.023L165.81 159.323L152.21 172.974L171.449 172.974L181 185.021L171.449 197.069L152.21 197.069L165.81 210.72L164.082 226.02L148.838 227.754L135.238 214.104L135.238 233.414L123.234 243L123.234 242.985ZM161.043 210.495L149.294 198.703C148.746 200.825 148.252 204.626 150.428 207.816C152.449 210.782 157.648 210.89 161.043 210.495ZM158.535 188.173C154.778 188.877 152.441 191.92 151.322 193.81L167.932 193.81C165.81 191.123 162.069 187.507 158.535 188.173ZM157.887 185.006C152.325 183.937 149.286 179.315 148.105 177.077L140.206 185.006L148.105 192.935C149.278 190.689 152.325 186.074 157.887 185.006ZM151.322 176.195C152.441 178.084 154.778 181.127 158.535 181.831C162.061 182.497 165.802 178.881 167.932 176.195L151.33 176.195L151.322 176.195ZM150.428 162.195C148.267 165.362 148.761 169.172 149.301 171.301L161.043 159.516C157.648 159.122 152.456 159.222 150.428 162.203L150.428 162.195ZM136.881 158.843C138.995 159.393 142.782 159.888 145.961 157.705C148.915 155.676 149.023 150.457 148.63 147.05L136.881 158.843ZM9.8621 34.1749C10.9807 36.0642 13.3182 39.1072 17.0751 39.8118C20.6006 40.4776 24.3422 36.8617 26.4714 34.1749L9.86981 34.1749L9.8621 34.1749ZM8.96721 20.1759C6.80717 23.3427 7.30089 27.1521 7.8409 29.2814L19.5823 17.4968C16.188 17.1019 10.9961 17.2026 8.96721 20.1836L8.96721 20.1759ZM-4.5794 16.8232C-2.46563 17.3729 1.32217 17.8685 4.50053 15.685C7.45518 13.6564 7.56319 8.43765 7.16975 5.03079L-4.5794 16.8232ZM-43.6301 5.03854C-44.0235 8.4454 -43.9155 13.6563 -40.9609 15.6927C-37.8056 17.8607 -34.0101 17.3652 -31.8886 16.8232L-43.6301 5.03854ZM-56.0427 17.4891L-44.2935 29.2814C-43.7458 27.1599 -43.2521 23.3582 -45.4275 20.1681C-47.4487 17.2026 -52.6483 17.0942 -56.0427 17.4891ZM-53.5355 39.8117C-49.7785 39.1071 -47.441 36.0642 -46.3224 34.1749L-62.9317 34.1749C-60.8102 36.8617 -57.0687 40.4776 -53.5355 39.8117ZM-52.8874 42.9863C-47.3253 44.0626 -44.2858 48.6773 -43.1055 50.915L-35.2059 42.9863L-43.1055 35.0576C-44.2781 37.303 -47.3253 41.9178 -52.8874 42.9863ZM-46.3224 51.7899C-47.441 49.9007 -49.7785 46.8578 -53.5355 46.1532C-57.061 45.4873 -60.8025 49.1032 -62.9317 51.7899L-46.3301 51.7899L-46.3224 51.7899ZM-45.4275 65.7968C-43.2675 62.63 -43.7612 58.8205 -44.3012 56.6912L-56.0427 68.4758C-52.6483 68.8707 -47.4564 68.7701 -45.4275 65.7891L-45.4275 65.7968ZM-31.8809 69.1417C-33.9947 68.592 -37.7825 68.0964 -40.9609 70.2799C-43.9155 72.3085 -44.0235 77.5272 -43.6301 80.9341L-31.8809 69.1417ZM-3.43767 106.757L8.31149 118.549C8.85922 116.427 9.35294 112.626 7.17745 109.436C5.15626 106.47 -0.0432945 106.362 -3.43767 106.757ZM-0.930457 129.079C2.82649 128.375 5.16398 125.332 6.28258 123.442L-10.3267 123.442C-8.20521 126.129 -4.46368 129.745 -0.930457 129.079ZM-0.274726 132.246C5.28741 133.322 8.32691 137.937 9.49951 140.175L17.3991 132.246L9.49951 124.317C8.32691 126.563 5.27969 131.178 -0.274726 132.246ZM6.28258 141.057C5.16398 139.168 2.82649 136.125 -0.930457 135.421C-4.45597 134.755 -8.19749 138.371 -10.3267 141.057L6.27487 141.057L6.28258 141.057ZM7.17745 155.064C9.3375 151.897 8.84378 148.088 8.30376 145.959L-3.43767 157.743C-0.0432968 158.138 5.14854 158.038 7.17745 155.057L7.17745 155.064ZM20.7241 158.409C18.6103 157.859 14.8225 157.364 11.6441 159.547C8.68949 161.576 8.58149 166.795 8.97493 170.202L20.7241 158.409ZM59.7747 170.202C60.1682 166.795 60.0602 161.576 57.1055 159.547C53.9503 157.379 50.1548 157.875 48.0333 158.417L59.7747 170.202ZM87.9326 181.831C91.6895 181.127 94.027 178.084 95.1456 176.195L78.5363 176.195C80.6578 178.881 84.3993 182.497 87.9326 181.831ZM88.5806 185.006C94.1427 186.082 97.1822 190.697 98.3548 192.935L106.254 185.006L98.3548 177.077C97.1822 179.323 94.135 183.937 88.5806 185.006ZM95.1379 193.81C94.0193 191.92 91.6818 188.877 87.9249 188.173C84.3993 187.507 80.6578 191.123 78.5286 193.81L95.1302 193.81L95.1379 193.81ZM96.0328 207.816C98.1928 204.65 97.6991 200.84 97.1591 198.711L85.4177 210.495C88.812 210.89 94.0039 210.79 96.0328 207.809L96.0328 207.816ZM109.579 211.161C107.466 210.612 103.678 210.116 100.499 212.3C97.5448 214.328 97.4368 219.547 97.8302 222.954L109.579 211.161ZM147.735 209.597C144.557 204.89 145.66 199.47 146.408 197.046L135.238 197.046L135.238 208.266C137.652 207.514 143.052 206.407 147.735 209.597ZM132.005 197.054L128.202 197.054L125.51 199.756L132.005 206.276L132.005 197.054ZM132.005 181.359L126.868 176.202L119.6 176.202L114.463 181.359L114.463 188.653L119.6 193.81L126.868 193.81L132.005 188.653L132.005 181.359ZM135.238 185.416L135.647 185.006L135.238 184.596L135.238 185.416ZM72.1873 106.757C68.793 106.362 63.5934 106.47 61.5722 109.436C59.4122 112.602 59.9059 116.412 60.4459 118.541L72.1873 106.757ZM28.4463 55.0342L10.7415 55.0342L24.3422 68.6849L22.6527 83.6286L34.371 74.2675L46.3747 83.8532L46.3747 103.164L58.3861 91.1082L28.4463 55.0342ZM52.5308 78.9906L67.9135 56.9854L40.8666 64.9296L52.5308 78.9829L52.5308 78.9906ZM16.4271 42.9863C10.865 41.9178 7.82548 37.2953 6.65288 35.0576L-1.24674 42.9863L6.65287 50.915C7.82547 48.6696 10.8727 44.0548 16.4271 42.9863ZM-23.2021 30.9384L-20.5098 28.2362L-27.0054 21.7167L-27.0054 30.9307L-23.2021 30.9307L-23.2021 30.9384ZM-27.0054 34.1749L-27.0054 34.7556L-26.4268 34.1749L-27.0054 34.1749ZM-18.6429 30.9384L-17.8251 30.9384L-18.234 30.5281L-18.6429 30.9384ZM-15.9505 28.2362L-13.2582 30.9384L-9.45494 30.9384L-9.45494 21.7244L-15.9505 28.2439L-15.9505 28.2362ZM-10.3267 18.0156C-12.5639 16.8387 -17.1617 13.7802 -18.2263 8.20537C-19.2986 13.788 -23.8964 16.8387 -26.1259 18.0156L-18.2263 25.9443L-10.3267 18.0156ZM-10.0335 34.1749L-9.45494 34.7556L-9.45494 34.1749L-10.0335 34.1749ZM-14.5928 34.1749L-21.8598 34.1749L-26.9977 39.3317L-26.9977 46.6255L-21.8598 51.7822L-14.5928 51.7822L-9.45494 46.6255L-9.45494 39.3317L-14.5928 34.1749ZM-30.2377 42.576L-30.6466 42.9863L-30.2377 43.3967L-30.2377 42.576ZM25.5996 135.901L30.7375 141.057L38.0122 141.057L43.15 135.901L43.15 128.607L38.0122 123.45L30.7452 123.45L25.6073 128.607L25.6073 135.901L25.5996 135.901ZM22.375 131.843L21.9661 132.254L22.375 132.664L22.375 131.843ZM72.1873 157.743L60.4382 145.951C59.8905 148.072 59.3967 151.874 61.5722 155.064C63.5934 158.03 68.793 158.138 72.1873 157.743ZM69.6801 135.421C65.9232 136.125 63.5857 139.168 62.4671 141.057L79.0764 141.057C76.9549 138.371 73.2134 134.755 69.6801 135.421ZM69.0321 132.246C63.47 131.17 60.4305 126.555 59.2579 124.317L51.3582 132.246L59.2579 140.175C60.4305 137.929 63.4777 133.315 69.0321 132.246ZM62.4594 123.442C63.5703 125.324 65.8923 128.367 69.6801 129.079C73.2056 129.745 76.9472 126.129 79.0764 123.442L62.4594 123.442ZM34.3787 94.3835C35.2196 89.8306 39.5165 86.0599 41.8077 84.341L34.3787 78.4022L26.9496 84.341C29.2408 86.0599 33.5378 89.8306 34.3864 94.3835L34.3787 94.3835ZM39.3468 120.198L43.15 120.198L43.15 110.984L36.6545 117.504L39.3468 120.206L39.3468 120.198ZM34.3787 119.796L33.9698 120.206L34.7876 120.206L34.3787 119.796ZM42.5715 123.442L43.15 124.023L43.15 123.442L42.5715 123.442ZM42.2783 107.283C40.0411 106.106 35.4433 103.048 34.3787 97.4728C33.3064 103.055 28.7086 106.106 26.4791 107.283L34.3787 115.212L42.2783 107.283ZM37.5339 96.8147C38.2359 100.585 41.2677 102.932 43.15 104.054L43.1501 87.3839C40.4731 89.5132 36.8705 93.2762 37.5339 96.8147ZM46.3747 108.986L46.3747 120.206L57.553 120.206C56.8047 117.79 55.7015 112.362 58.8799 107.662C54.1895 110.853 48.7893 109.745 46.3824 108.994L46.3747 108.986ZM46.3747 123.442L46.3747 127.26L49.067 129.962L55.5626 123.442L46.3747 123.442ZM46.3747 131.843L46.3747 132.664L46.7836 132.254L46.3747 131.843ZM49.067 134.538L46.3747 137.24L46.3747 141.057L55.5626 141.057L49.067 134.538ZM43.15 140.477L42.5715 141.057L43.15 141.057L43.15 140.477ZM57.553 144.294L46.3747 144.294L46.3747 155.513C48.7816 154.762 54.1895 153.655 58.8799 156.845C55.7015 152.137 56.8047 146.718 57.553 144.294ZM39.3468 144.294L36.6545 146.996L43.15 153.516L43.15 144.294L39.3468 144.294ZM34.7798 144.294L33.9621 144.294L34.371 144.704L34.7798 144.294ZM32.0952 146.996L29.4029 144.294L25.5996 144.294L25.5996 153.516L32.0952 146.996ZM26.4714 157.217C28.7085 158.394 33.3064 161.452 34.371 167.027C35.4433 161.444 40.0411 158.394 42.2706 157.217L34.371 149.288L26.4714 157.217ZM26.1782 141.057L25.5996 140.477L25.5996 141.057L26.1782 141.057ZM26.1782 123.442L25.5996 123.442L25.5996 124.023L26.1782 123.442ZM29.4029 120.198L32.0952 117.496L25.5996 110.976L25.5996 120.19L29.4029 120.19L29.4029 120.198ZM22.375 108.986C19.9681 109.738 14.5602 110.845 9.87752 107.655C11.513 110.071 12.0144 112.68 12.0144 114.979C12.0144 117.147 11.567 119.029 11.2044 120.198L22.375 120.198L22.375 108.979L22.375 108.986ZM31.2158 96.8147C31.8792 93.2762 28.2765 89.5132 25.5996 87.3839L25.5996 104.062C27.4742 102.947 30.506 100.616 31.2158 96.8147ZM-13.2582 55.0342L-15.9505 57.7365L-9.45494 64.256L-9.45494 55.042L-13.2582 55.042L-13.2582 55.0342ZM-9.45494 51.7899L-9.45494 51.2092L-10.0335 51.7899L-9.45494 51.7899ZM-17.8251 55.0342L-18.6429 55.0342L-18.234 55.4446L-17.8251 55.0342ZM-6.2303 66.2459C-3.82338 65.4948 1.58446 64.3876 6.26715 67.5777C3.08879 62.87 4.19195 57.45 4.94026 55.0342L-6.23801 55.0342L-6.23801 66.2536L-6.2303 66.2459ZM8.96721 65.7968C10.9884 68.7623 16.188 68.8707 19.5823 68.4758L7.8409 56.6912C7.30088 58.8205 6.80716 62.63 8.96721 65.7968ZM8.45034 69.7612C10.109 72.1847 10.5564 75.3825 10.5564 78.1157C10.5564 79.6797 10.4098 81.0967 10.2632 82.1342L19.698 81.058L20.7704 71.5885C17.9391 71.9988 12.2536 72.386 8.45034 69.7689L8.45034 69.7612ZM4.50053 70.2799C1.34531 68.1119 -2.45021 68.6075 -4.57169 69.1495L7.16974 80.9341C7.56318 77.5272 7.46289 72.3163 4.49282 70.2799L4.50053 70.2799ZM-18.234 60.0206L-26.1336 67.9493C-23.8964 69.1262 -19.2986 72.1847 -18.234 77.7595C-17.1617 72.1769 -12.5639 69.1262 -10.3344 67.9493L-18.234 60.0206ZM-20.5098 57.7288L-23.2021 55.0265L-27.0054 55.0265L-27.0054 64.2405L-20.5098 57.721L-20.5098 57.7288ZM-26.4268 51.7899L-27.0054 51.2092L-27.0054 51.7899L-26.4268 51.7899ZM-6.2303 43.3967L-5.82143 42.9863L-6.2303 42.576L-6.2303 43.3967ZM-6.2303 47.9727L-6.2303 51.7899L2.95764 51.7899L-3.53794 45.2705L-6.2303 47.9727ZM17.0674 46.1532C13.3105 46.8578 10.973 49.9007 9.85438 51.7899L26.4637 51.7899C24.3422 49.1032 20.6006 45.4873 17.0674 46.1532ZM48.0256 106.091C50.1394 106.64 53.9272 107.136 57.1055 104.952C60.0679 102.924 60.1682 97.7052 59.7747 94.2983L48.0256 106.091ZM72.1025 132.246C76.6386 133.09 80.3955 137.403 82.1081 139.702L88.0251 132.246L82.1081 124.79C80.3955 127.089 76.6386 131.402 72.1025 132.246ZM111.23 180.012L111.23 176.195L102.042 176.195L108.538 182.714L111.23 180.012ZM110.821 185.006L111.23 185.416L111.23 184.596L110.821 185.006ZM120.951 170.256L114.455 163.736L114.455 172.95L118.258 172.95L120.951 170.248L120.951 170.256ZM122.825 172.958L123.643 172.958L123.234 172.548L122.825 172.958ZM98.7328 160.407C100.368 162.823 100.87 165.432 100.87 167.732C100.87 169.9 100.422 171.781 100.06 172.95L111.23 172.95L111.23 161.731C108.823 162.482 103.416 163.589 98.7328 160.399L98.7328 160.407ZM114.455 176.195L114.455 176.775L115.034 176.195L114.455 176.195ZM96.0328 162.195C94.0116 159.23 88.812 159.122 85.4177 159.516L97.1668 171.309C97.7145 169.187 98.2082 165.386 96.0328 162.195ZM96.5574 158.231C93.9421 154.414 94.3279 148.7 94.7367 145.858L85.3019 146.934L84.2296 156.404C87.0608 155.993 92.7618 155.606 96.5574 158.231ZM100.507 157.705C103.662 159.873 107.458 159.377 109.579 158.835L97.8379 147.05C97.4445 150.457 97.5525 155.668 100.507 157.705ZM123.234 167.964L131.134 160.035C128.896 158.858 124.299 155.8 123.234 150.225C122.162 155.808 117.564 158.858 115.334 160.035L123.234 167.964ZM125.517 170.256L128.21 172.958L132.013 172.958L132.013 163.736L125.517 170.256ZM131.435 176.195L132.013 176.775L132.013 176.195L131.435 176.195ZM118.258 197.054L114.455 197.054L114.455 206.268L120.951 199.748L118.258 197.046L118.258 197.054ZM123.234 197.464L123.643 197.054L122.825 197.054L123.234 197.464ZM115.034 193.81L114.455 193.229L114.455 193.81L115.034 193.81ZM131.435 193.81L132.013 193.81L132.013 193.229L131.435 193.81ZM115.327 209.977C117.564 211.154 122.162 214.212 123.226 219.787C124.299 214.204 128.896 211.154 131.126 209.977L123.226 202.048L115.327 209.977ZM120.071 220.437C119.369 216.667 116.337 214.32 114.455 213.198L114.455 229.868C117.132 227.739 120.735 223.984 120.071 220.437ZM111.23 197.054L100.06 197.054C100.422 198.231 100.87 200.112 100.87 202.273C100.87 204.564 100.368 207.182 98.7328 209.597C103.423 206.407 108.823 207.514 111.23 208.266L111.23 197.046L111.23 197.054ZM111.23 193.81L111.23 189.992L108.538 187.29L102.042 193.81L111.23 193.81ZM80.6501 159.307L82.3473 144.302L63.3466 144.302L76.9472 157.952L75.25 172.958L94.243 172.958L80.6424 159.307L80.6501 159.307ZM73.3831 160.848C70.5519 161.259 64.8663 161.646 61.0631 159.029C62.7217 161.452 63.1691 164.65 63.1691 167.383C63.1691 168.947 63.0225 170.364 62.876 171.402L72.3108 170.325L73.3831 160.856L73.3831 160.848ZM37.5339 167.677C36.8705 171.216 40.4731 174.971 43.15 177.108L43.15 160.43C41.2754 161.545 38.2436 163.876 37.5339 167.677ZM31.2158 167.677C30.5137 163.907 27.4819 161.561 25.5996 160.438L25.5996 177.108C28.2765 174.979 31.8869 171.216 31.2158 167.677ZM22.375 144.294L11.2044 144.294C11.567 145.471 12.0144 147.352 12.0144 149.513C12.0144 151.805 11.513 154.422 9.87752 156.837C14.5679 153.647 19.968 154.755 22.375 155.506L22.375 144.286L22.375 144.294ZM22.375 141.057L22.375 137.24L19.6826 134.538L13.187 141.057L22.375 141.057ZM19.6826 129.962L22.375 127.26L22.375 123.442L13.187 123.442L19.6826 129.962ZM20.7164 106.083L8.97493 94.2983C8.58149 97.7052 8.68178 102.916 11.6519 104.952C14.8071 107.12 18.6026 106.625 20.7241 106.083L20.7164 106.083ZM22.375 103.164L22.375 84.008L7.37803 85.7192L-6.22258 72.0685L-6.22258 91.2243L8.77435 89.5132L22.375 103.164ZM-9.45494 71.1781C-11.3373 72.3008 -14.3691 74.6469 -15.0711 78.4177C-15.7345 81.9562 -12.1319 85.7192 -9.45495 87.8485L-9.45494 71.1781ZM-21.3892 78.4177C-22.0913 74.6469 -25.123 72.3008 -27.0054 71.1781L-27.0054 87.8485C-24.3285 85.7192 -20.7258 81.9639 -21.3892 78.4177ZM-30.2377 55.0342L-41.4083 55.0342C-41.0457 56.2111 -40.5983 58.0926 -40.5983 60.2529C-40.5983 62.5448 -41.0997 65.1619 -42.7352 67.5777C-38.0448 64.3876 -32.6447 65.4948 -30.2377 66.2459L-30.2377 55.0265L-30.2377 55.0342ZM-30.2377 51.7899L-30.2377 47.9727L-32.9301 45.2705L-39.4257 51.7899L-30.2377 51.7899ZM-32.9224 40.6944L-30.23 37.9921L-30.23 34.1749L-39.418 34.1749L-32.9224 40.6944ZM-30.2377 30.9384L-30.2377 19.719C-32.6447 20.4701 -38.0525 21.5773 -42.7352 18.3872C-41.0997 20.803 -40.5983 23.4123 -40.5983 25.712C-40.5983 27.88 -41.0457 29.7615 -41.4083 30.9307L-30.2377 30.9307L-30.2377 30.9384ZM-21.3892 7.55497C-20.7335 4.00874 -24.3285 0.253432 -27.0054 -1.87586L-27.0054 14.7945C-25.123 13.6718 -22.0913 11.3257 -21.3892 7.55497ZM-15.0711 7.55497C-14.3691 11.3257 -11.3373 13.6718 -9.45494 14.7945L-9.45494 -1.87586C-12.1319 0.253432 -15.7345 4.01648 -15.0711 7.55497ZM-6.2303 30.9384L4.94797 30.9384C4.19967 28.5226 3.09651 23.0949 6.27487 18.395C1.58447 21.585 -3.81567 20.4778 -6.22258 19.7268L-6.22258 30.9462L-6.2303 30.9384ZM-6.2303 34.1749L-6.2303 37.9921L-3.53794 40.6944L2.95764 34.1749L-6.2303 34.1749ZM19.4898 42.9863C24.0259 43.8303 27.7828 48.1431 29.4954 50.4427L35.4124 42.9863L29.4954 35.5299C27.7828 37.8296 24.0259 42.1501 19.4898 42.9863ZM31.2852 53.3927L38.6139 62.2196L65.5992 54.2909L38.0276 44.8833L31.2852 53.385L31.2852 53.3927ZM54.6678 81.569L61.3948 89.6758L72.0099 90.8837L69.7418 59.9974L54.6678 81.5613L54.6678 81.569ZM62.8682 93.0982C63.0148 94.1357 63.1614 95.5449 63.1614 97.1167C63.1614 99.8499 62.714 103.048 61.0554 105.471C64.8586 102.854 70.5442 103.241 73.3754 103.652L72.3031 94.1821L62.8682 93.1059L62.8682 93.0982ZM63.3543 120.198L82.5942 120.198L92.1447 132.246L82.8642 143.946L97.6219 142.265L111.223 155.916L111.223 138.146L75.358 108.143L63.3466 120.198L63.3543 120.198ZM100.677 125.107L105.244 102.08L87.624 114.19L100.677 125.107ZM103.5 127.469L112.866 135.304L121.174 128.669L108.137 104.108L103.5 127.476L103.5 127.469ZM114.455 156.806C116.337 155.684 119.369 153.338 120.071 149.567C120.735 146.021 117.132 142.265 114.455 140.136L114.455 156.806ZM126.389 149.575C127.091 153.345 130.123 155.691 132.005 156.814L132.005 140.144C129.328 142.273 125.726 146.036 126.389 149.575ZM135.238 172.958L146.416 172.958C145.668 170.535 144.565 165.115 147.743 160.407C143.052 163.597 137.652 162.49 135.245 161.739L135.245 172.958L135.238 172.958ZM135.238 176.195L135.238 180.012L137.93 182.714L144.426 176.195L135.238 176.195ZM137.922 187.298L135.23 190L135.23 193.817L144.418 193.817L137.922 187.298ZM136.889 211.169L148.63 222.954C149.023 219.547 148.915 214.336 145.961 212.3C142.806 210.132 139.01 210.627 136.889 211.169ZM126.389 220.437C125.726 223.976 129.328 227.739 132.005 229.868L132.005 213.198C130.123 214.32 127.091 216.667 126.389 220.437ZM130.663 232.911C128.372 231.192 124.075 227.421 123.234 222.869C122.393 227.421 118.088 231.192 115.797 232.911L123.234 238.85L130.663 232.911ZM94.7367 224.154C94.3279 221.312 93.9421 215.59 96.5573 211.781C92.7541 214.406 87.0608 214.018 84.2296 213.608L85.3019 223.078L94.7367 224.154ZM75.5046 192.462C77.2172 190.163 80.9741 185.842 85.5102 185.006C80.9741 184.162 77.2172 179.849 75.5046 177.55L69.5875 185.006L75.5046 192.462ZM41.8077 180.151C39.5165 178.432 35.2196 174.654 34.3787 170.109C33.5378 174.661 29.2331 178.432 26.9419 180.151L34.371 186.09L41.8077 180.151ZM5.88142 171.402C5.47256 168.56 5.08683 162.838 7.70203 159.029C3.8988 161.653 -1.79448 161.266 -4.62569 160.856L-3.55338 170.325L5.88142 171.402ZM-13.3508 139.71C-11.6382 137.411 -7.8812 133.098 -3.34509 132.254C-7.8812 131.41 -11.6382 127.097 -13.3508 124.797L-19.2678 132.254L-13.3508 139.71ZM-4.63341 103.652C-1.80219 103.241 3.8988 102.854 7.69432 105.479C5.07912 101.662 5.46484 95.9475 5.87371 93.1059L-3.56109 94.1821L-4.63341 103.652ZM-10.7973 90.8914C-13.0885 89.1725 -17.3854 85.4017 -18.2263 80.8489C-19.0672 85.4017 -23.3719 89.1725 -25.6631 90.8914L-18.234 96.8302L-10.805 90.8914L-10.7973 90.8914ZM-46.7236 82.1342C-47.1324 79.2926 -47.5182 73.5706 -44.903 69.7611C-48.7062 72.386 -54.3995 71.9988 -57.2307 71.5884L-56.1584 81.058L-46.7236 82.1342ZM-65.9635 50.4427C-64.2509 48.1431 -60.4939 43.8225 -55.9578 42.9863C-60.4939 42.1423 -64.2509 37.8296 -65.9635 35.5299L-71.8805 42.9863L-65.9635 50.4427ZM-57.2384 14.3842C-54.4072 13.9738 -48.7062 13.5866 -44.9107 16.2115C-47.5259 12.3942 -47.1402 6.68001 -46.7313 3.83838L-56.1661 4.91465L-57.2384 14.3842ZM-25.6631 -4.9188C-23.3719 -3.19988 -19.0749 0.570897 -18.2263 5.1237C-17.3854 0.570897 -13.0885 -3.19988 -10.7973 -4.9188L-18.2263 -10.8576L-25.6553 -4.9188L-25.6631 -4.9188ZM10.2633 3.83838C10.4098 4.87593 10.5564 6.28513 10.5564 7.85693C10.5564 10.5902 10.109 13.7802 8.45035 16.2115C12.2536 13.5944 17.9391 13.9815 20.7704 14.3919L19.6981 4.92238L10.2633 3.84613L10.2633 3.83838ZM75.6126 94.7009L76.7929 105.131L85.0474 112.037L102.999 99.695L75.6048 94.7009L75.6126 94.7009ZM115.797 137.101C118.088 138.82 122.393 142.591 123.234 147.143C124.075 142.591 128.372 138.82 130.663 137.101L123.234 131.162L115.797 137.101ZM151.724 145.858C151.87 146.896 152.017 148.305 152.017 149.877C152.017 152.61 151.569 155.808 149.911 158.231C153.714 155.614 159.399 156.001 162.231 156.412L161.158 146.942L151.716 145.866L151.724 145.858ZM170.963 177.542C169.251 179.841 165.494 184.162 160.958 184.998C165.494 185.842 169.251 190.155 170.963 192.455L176.88 184.998L170.963 177.542ZM162.238 213.6C159.407 214.011 153.722 214.398 149.918 211.781C151.577 214.204 152.024 217.402 152.024 220.135C152.024 221.699 151.878 223.116 151.731 224.154L161.174 223.078L162.246 213.608L162.238 213.6Z" fill="#FFC36C" fill-opacity="0.25"/>
</g>
</svg>
