<svg width="294" height="25" viewBox="0 0 294 25" fill="none" xmlns="http://www.w3.org/2000/svg">
<path d="M107.501 12.342C107.816 12.1326 108.146 11.937 108.49 11.7565C111.147 10.4887 113.819 9.24246 116.466 7.9639C117.408 7.5042 118.096 7.84191 118.732 8.3483C119.872 9.25693 121.012 10.162 122.124 11.085C122.902 11.7279 123.665 11.9037 124.442 11.1208C126.006 9.55133 127.839 9.34317 129.949 10.4565C130.807 10.909 131.41 10.9126 131.961 10.0974C133.53 7.77012 135.645 6.06406 139.532 6.55609C140.606 6.68897 140.281 5.99224 140.328 5.57563C140.662 2.34334 143.574 0.148967 147.705 0.00890026C152.416 -0.149124 155.672 1.8046 156.185 5.29189C156.308 6.16102 156.656 6.41242 157.754 6.36932C161.613 6.17179 163.949 7.74856 165.198 10.3595C165.669 11.3185 166.14 11.4369 167.167 10.8658C168.679 10.0254 170.191 9.96432 171.638 11.0022C172.848 11.8678 173.786 11.5697 174.799 10.6934C177.908 8.00344 177.941 8.02135 181.866 9.92481C183.123 10.5354 184.32 11.2322 185.634 11.7458C187.302 12.3922 186.845 12.8017 185.583 13.3691C183.623 14.249 181.701 15.1647 179.816 16.1416C178.596 16.7629 177.578 16.8887 176.627 15.8688C176.316 15.5312 175.793 15.3121 175.473 14.9781C174.12 13.5415 172.849 12.8231 170.827 14.5398C169.885 15.3479 168.34 15.1217 167.205 14.3352C166.215 13.6528 165.711 13.8109 165.221 14.7662C163.888 17.3844 161.57 19.076 157.608 18.8964C156.331 18.8353 156.313 19.3704 156.195 20.0887C155.677 22.7643 153.783 24.2763 150.405 24.8474C147.027 25.4184 143.131 24.3374 141.355 22.4375C140.271 21.2811 141.053 19.5643 139.979 18.7957C138.905 18.0272 136.681 18.7347 135.15 17.8979C133.893 17.278 132.894 16.3971 132.272 15.3588C131.721 14.3604 131.089 14.1125 129.813 14.741C127.999 15.6317 126.199 15.5131 124.739 14.2345C123.655 13.2828 122.812 13.3654 121.658 14.2345C117.569 17.3016 117.536 17.2766 112.433 15.0535C111.143 14.4896 109.838 13.9401 108.552 13.3654C108.071 13.1428 107.473 13.0064 107.501 12.342ZM148.69 5.93477C146.839 5.77316 145.581 6.68177 145.26 7.97109C144.94 9.26042 144.257 9.4759 142.726 9.66984C140.592 9.9356 139.701 11.2215 139.843 12.8735C139.979 14.4538 141.1 15.3301 143.14 15.2834C144.596 15.2475 144.916 15.6928 145.143 16.72C145.463 18.1817 146.688 19.3094 148.803 19.2052C150.829 19.1011 152.346 18.2355 152.572 16.5439C152.685 15.743 153.133 15.4377 154.178 15.3264C157.109 15.0139 158.117 14.206 158.159 12.3276C158.192 10.8911 156.746 9.79556 154.263 9.60162C153.118 9.51543 152.713 9.29279 152.511 8.38057C152.205 6.90089 151.093 5.85576 148.69 5.93477Z" fill="#B98F79"/>
<path d="M185.5 12.5L180.5 10.1132V15.8868L185.5 13.5V12.5ZM287.833 13C287.833 14.4728 289.027 15.6667 290.5 15.6667C291.973 15.6667 293.167 14.4728 293.167 13C293.167 11.5272 291.973 10.3333 290.5 10.3333C289.027 10.3333 287.833 11.5272 287.833 13ZM185 13V13.5H290.5V13V12.5H185V13Z" fill="#B98F79"/>
<path d="M108.5 12.5L113.5 10.1132V15.8867L108.5 13.5V12.5ZM6.16666 13C6.16666 14.4727 4.97276 15.6667 3.5 15.6667C2.02724 15.6667 0.833328 14.4727 0.833328 13C0.833328 11.5272 2.02724 10.3333 3.5 10.3333C4.97276 10.3333 6.16666 11.5272 6.16666 13ZM109 13V13.5H3.5V13V12.5H109V13Z" fill="#B98F79"/>
</svg>
