<svg width="237" height="76" viewBox="0 0 237 76" fill="none" xmlns="http://www.w3.org/2000/svg">
<g filter="url(#filter0_d_1801_11310)">
<path d="M145.652 66.0576H45.4703C43.9339 66.059 42.4361 65.5573 41.1899 64.6237C39.9437 63.69 39.0124 62.372 38.5285 60.857L36.5555 54.6695H25.5947C25.5947 54.6695 20.1144 33.981 5.5 33.981C20.1144 33.981 25.5947 13.3305 25.5947 13.3305H36.5555L38.5285 7.14298C39.0124 5.62794 39.9437 4.30993 41.1899 3.3763C42.4361 2.44268 43.9339 1.94094 45.4703 1.94239L191.53 1.94238C193.06 1.94889 194.55 2.45433 195.788 3.38739C197.027 4.32046 197.953 5.63408 198.435 7.14298L200.445 13.3305H211.405C211.405 13.3305 216.886 33.981 231.5 33.981C216.886 33.981 211.405 54.6695 211.405 54.6695H200.445L198.435 60.857C197.953 62.3659 197.027 63.6795 195.788 64.6126C194.55 65.5457 193.06 66.0511 191.53 66.0576H145.652Z" fill="#D9D9D9"/>
<path d="M145.652 66.0576H45.4703C43.9339 66.059 42.4361 65.5573 41.1899 64.6237C39.9437 63.69 39.0124 62.372 38.5285 60.857L36.5555 54.6695H25.5947C25.5947 54.6695 20.1144 33.981 5.5 33.981C20.1144 33.981 25.5947 13.3305 25.5947 13.3305H36.5555L38.5285 7.14298C39.0124 5.62794 39.9437 4.30993 41.1899 3.3763C42.4361 2.44268 43.9339 1.94094 45.4703 1.94239L191.53 1.94238C193.06 1.94889 194.55 2.45433 195.788 3.38739C197.027 4.32046 197.953 5.63408 198.435 7.14298L200.445 13.3305H211.405C211.405 13.3305 216.886 33.981 231.5 33.981C216.886 33.981 211.405 54.6695 211.405 54.6695H200.445L198.435 60.857C197.953 62.3659 197.027 63.6795 195.788 64.6126C194.55 65.5457 193.06 66.0511 191.53 66.0576H145.652Z" fill="url(#paint0_linear_1801_11310)"/>
<path d="M145.652 66.0576H45.4703C43.9339 66.059 42.4361 65.5573 41.1899 64.6237C39.9437 63.69 39.0124 62.372 38.5285 60.857L36.5555 54.6695H25.5947C25.5947 54.6695 20.1144 33.981 5.5 33.981C20.1144 33.981 25.5947 13.3305 25.5947 13.3305H36.5555L38.5285 7.14298C39.0124 5.62794 39.9437 4.30993 41.1899 3.3763C42.4361 2.44268 43.9339 1.94094 45.4703 1.94239L191.53 1.94238C193.06 1.94889 194.55 2.45433 195.788 3.38739C197.027 4.32046 197.953 5.63408 198.435 7.14298L200.445 13.3305H211.405C211.405 13.3305 216.886 33.981 231.5 33.981C216.886 33.981 211.405 54.6695 211.405 54.6695H200.445L198.435 60.857C197.953 62.3659 197.027 63.6795 195.788 64.6126C194.55 65.5457 193.06 66.0511 191.53 66.0576H145.652Z" stroke="url(#paint1_linear_1801_11310)" stroke-width="2.1936" stroke-linejoin="round"/>
<path d="M203.523 48.9048L202.975 44.8431C202.641 42.2034 201.448 39.7619 199.593 37.9248C197.739 36.0877 195.335 34.9658 192.781 34.7456L188.945 34.4039L191.539 33.7586C194.183 33.1276 196.596 31.7177 198.488 29.6978C200.38 27.6779 201.672 25.1337 202.207 22.3705L202.755 19.3716M35.5319 19.5643L35.9338 23.5881C36.1959 26.2019 37.3033 28.6461 39.0751 30.5215C40.8469 32.3969 43.1785 33.5926 45.6888 33.9134L49.5251 34.4069L46.8946 34.9383C44.236 35.4831 41.786 36.8162 39.841 38.7765C37.8959 40.7368 36.5389 43.2404 35.9338 45.9848L35.2761 48.9078M50.1829 58.5811C49.0261 58.5949 47.8931 58.2379 46.9386 57.5586C45.984 56.8793 45.2542 55.9108 44.8486 54.785L43.3142 48.3318H34.9474C34.9474 48.3318 30.7458 34.1725 19.5293 34.1725C30.7458 34.1725 34.9474 19.9753 34.9474 19.9753H43.3142L44.8486 13.5979C45.2587 12.4753 45.9896 11.5098 46.9431 10.8313C47.8967 10.1527 49.0272 9.7935 50.1829 9.8019H188.251C189.402 9.79587 190.526 10.1565 191.474 10.8353C192.421 11.5141 193.145 12.4783 193.549 13.5979L195.083 19.9753H203.486C203.486 19.9753 207.688 34.1725 218.868 34.1725C207.688 34.1725 204.254 48.3318 204.254 48.3318H195.887L193.476 54.785C193.077 55.9078 192.353 56.8751 191.405 57.5546C190.457 58.2341 189.33 58.5926 188.178 58.5811H50.1829Z" stroke="url(#paint2_linear_1801_11310)" stroke-width="1.4624" stroke-linejoin="round"/>
</g>
<path d="M69.634 40V27.4H72.244V37.696H79.138V40H69.634ZM85.0132 40.18C84.0772 40.18 83.2252 39.964 82.4572 39.532C81.7012 39.1 81.1012 38.518 80.6572 37.786C80.2132 37.054 79.9912 36.232 79.9912 35.32C79.9912 34.408 80.2012 33.586 80.6212 32.854C81.0532 32.122 81.6352 31.54 82.3672 31.108C83.0992 30.676 83.9152 30.46 84.8152 30.46C85.7152 30.46 86.5132 30.682 87.2092 31.126C87.9052 31.57 88.4512 32.17 88.8472 32.926C89.2552 33.682 89.4592 34.54 89.4592 35.5V36.148H82.5112C82.6192 36.52 82.7932 36.856 83.0332 37.156C83.2852 37.456 83.5912 37.69 83.9512 37.858C84.3232 38.026 84.7192 38.11 85.1392 38.11C85.5592 38.11 85.9432 38.044 86.2912 37.912C86.6512 37.78 86.9572 37.594 87.2092 37.354L88.8292 38.83C88.2532 39.298 87.6592 39.64 87.0472 39.856C86.4472 40.072 85.7692 40.18 85.0132 40.18ZM82.4752 34.384H87.0292C86.9452 34.012 86.7892 33.688 86.5612 33.412C86.3452 33.124 86.0812 32.902 85.7692 32.746C85.4692 32.578 85.1332 32.494 84.7612 32.494C84.3772 32.494 84.0292 32.572 83.7172 32.728C83.4052 32.884 83.1412 33.106 82.9252 33.394C82.7212 33.67 82.5712 34 82.4752 34.384ZM93.9053 40.162C93.2333 40.162 92.6393 40.042 92.1233 39.802C91.6073 39.55 91.2053 39.208 90.9173 38.776C90.6293 38.344 90.4853 37.846 90.4853 37.282C90.4853 36.382 90.8213 35.686 91.4933 35.194C92.1773 34.69 93.1133 34.438 94.3013 34.438C95.1173 34.438 95.8853 34.564 96.6053 34.816V34.132C96.6053 33.592 96.4373 33.184 96.1013 32.908C95.7653 32.632 95.2733 32.494 94.6253 32.494C94.2293 32.494 93.8033 32.56 93.3473 32.692C92.8913 32.812 92.3633 33.004 91.7633 33.268L90.8633 31.45C91.6073 31.114 92.3153 30.862 92.9873 30.694C93.6713 30.526 94.3553 30.442 95.0393 30.442C96.2993 30.442 97.2773 30.748 97.9733 31.36C98.6813 31.96 99.0353 32.812 99.0353 33.916V40H96.6053V39.334C96.2213 39.622 95.8073 39.832 95.3633 39.964C94.9193 40.096 94.4333 40.162 93.9053 40.162ZM92.8253 37.228C92.8253 37.588 92.9813 37.876 93.2933 38.092C93.6053 38.296 94.0193 38.398 94.5353 38.398C94.9433 38.398 95.3213 38.35 95.6693 38.254C96.0173 38.146 96.3293 37.99 96.6053 37.786V36.418C96.3053 36.298 95.9933 36.208 95.6693 36.148C95.3453 36.088 94.9973 36.058 94.6253 36.058C94.0613 36.058 93.6173 36.166 93.2933 36.382C92.9813 36.586 92.8253 36.868 92.8253 37.228ZM100.902 40V30.622H103.368V31.666C103.668 31.258 104.028 30.946 104.448 30.73C104.868 30.514 105.342 30.406 105.87 30.406C106.326 30.418 106.668 30.49 106.896 30.622V32.782C106.716 32.698 106.518 32.638 106.302 32.602C106.086 32.554 105.864 32.53 105.636 32.53C105.156 32.53 104.718 32.65 104.322 32.89C103.926 33.13 103.608 33.472 103.368 33.916V40H100.902ZM108.249 40V30.622H110.715V31.396C111.423 30.76 112.299 30.442 113.343 30.442C114.075 30.442 114.717 30.604 115.269 30.928C115.833 31.24 116.271 31.678 116.583 32.242C116.895 32.794 117.051 33.442 117.051 34.186V40H114.585V34.546C114.585 33.934 114.411 33.454 114.063 33.106C113.715 32.746 113.241 32.566 112.641 32.566C112.221 32.566 111.849 32.65 111.525 32.818C111.201 32.974 110.931 33.202 110.715 33.502V40H108.249ZM122.702 40V27.4H126.05L129.506 34.204L132.962 27.4H136.31V40H133.844V30.73L129.47 39.1L125.114 30.694V40H122.702ZM142.985 40.18C142.049 40.18 141.203 39.964 140.447 39.532C139.691 39.1 139.091 38.518 138.647 37.786C138.203 37.054 137.981 36.232 137.981 35.32C137.981 34.408 138.197 33.586 138.629 32.854C139.073 32.11 139.673 31.522 140.429 31.09C141.197 30.658 142.049 30.442 142.985 30.442C143.921 30.442 144.767 30.658 145.523 31.09C146.291 31.522 146.891 32.11 147.323 32.854C147.767 33.586 147.989 34.408 147.989 35.32C147.989 36.232 147.767 37.054 147.323 37.786C146.891 38.518 146.297 39.1 145.541 39.532C144.785 39.964 143.933 40.18 142.985 40.18ZM142.985 38.038C143.477 38.038 143.915 37.918 144.299 37.678C144.695 37.438 145.007 37.114 145.235 36.706C145.475 36.286 145.595 35.824 145.595 35.32C145.595 34.804 145.475 34.342 145.235 33.934C145.007 33.526 144.695 33.202 144.299 32.962C143.915 32.71 143.477 32.584 142.985 32.584C142.505 32.584 142.067 32.71 141.671 32.962C141.275 33.202 140.963 33.526 140.735 33.934C140.507 34.342 140.393 34.804 140.393 35.32C140.393 35.824 140.507 36.286 140.735 36.706C140.963 37.114 141.275 37.438 141.671 37.678C142.067 37.918 142.505 38.038 142.985 38.038ZM149.505 40V30.622H151.971V31.666C152.271 31.258 152.631 30.946 153.051 30.73C153.471 30.514 153.945 30.406 154.473 30.406C154.929 30.418 155.271 30.49 155.499 30.622V32.782C155.319 32.698 155.121 32.638 154.905 32.602C154.689 32.554 154.467 32.53 154.239 32.53C153.759 32.53 153.321 32.65 152.925 32.89C152.529 33.13 152.211 33.472 151.971 33.916V40H149.505ZM161.074 40.18C160.138 40.18 159.286 39.964 158.518 39.532C157.762 39.1 157.162 38.518 156.718 37.786C156.274 37.054 156.052 36.232 156.052 35.32C156.052 34.408 156.262 33.586 156.682 32.854C157.114 32.122 157.696 31.54 158.428 31.108C159.16 30.676 159.976 30.46 160.876 30.46C161.776 30.46 162.574 30.682 163.27 31.126C163.966 31.57 164.512 32.17 164.908 32.926C165.316 33.682 165.52 34.54 165.52 35.5V36.148H158.572C158.68 36.52 158.854 36.856 159.094 37.156C159.346 37.456 159.652 37.69 160.012 37.858C160.384 38.026 160.78 38.11 161.2 38.11C161.62 38.11 162.004 38.044 162.352 37.912C162.712 37.78 163.018 37.594 163.27 37.354L164.89 38.83C164.314 39.298 163.72 39.64 163.108 39.856C162.508 40.072 161.83 40.18 161.074 40.18ZM158.536 34.384H163.09C163.006 34.012 162.85 33.688 162.622 33.412C162.406 33.124 162.142 32.902 161.83 32.746C161.53 32.578 161.194 32.494 160.822 32.494C160.438 32.494 160.09 32.572 159.778 32.728C159.466 32.884 159.202 33.106 158.986 33.394C158.782 33.67 158.632 34 158.536 34.384Z" fill="#F5E9CF"/>
<defs>
<filter id="filter0_d_1801_11310" x="0.40332" y="0.845581" width="236.193" height="74.3088" filterUnits="userSpaceOnUse" color-interpolation-filters="sRGB">
<feFlood flood-opacity="0" result="BackgroundImageFix"/>
<feColorMatrix in="SourceAlpha" type="matrix" values="0 0 0 0 0 0 0 0 0 0 0 0 0 0 0 0 0 0 127 0" result="hardAlpha"/>
<feOffset dy="4"/>
<feGaussianBlur stdDeviation="2"/>
<feComposite in2="hardAlpha" operator="out"/>
<feColorMatrix type="matrix" values="0 0 0 0 0 0 0 0 0 0 0 0 0 0 0 0 0 0 0.25 0"/>
<feBlend mode="normal" in2="BackgroundImageFix" result="effect1_dropShadow_1801_11310"/>
<feBlend mode="normal" in="SourceGraphic" in2="effect1_dropShadow_1801_11310" result="shape"/>
</filter>
<linearGradient id="paint0_linear_1801_11310" x1="5.5" y1="34" x2="293.695" y2="34" gradientUnits="userSpaceOnUse">
<stop offset="0.0001" stop-color="#2A1D03"/>
<stop offset="0.5" stop-color="#573C00"/>
<stop offset="1" stop-color="#2A1D03"/>
</linearGradient>
<linearGradient id="paint1_linear_1801_11310" x1="149.597" y1="1.94238" x2="149.597" y2="66.0576" gradientUnits="userSpaceOnUse">
<stop stop-color="#FFA91E"/>
<stop offset="0.5" stop-color="#4D3309"/>
<stop offset="1" stop-color="#FFA91E"/>
</linearGradient>
<linearGradient id="paint2_linear_1801_11310" x1="150.036" y1="9.80176" x2="150.036" y2="58.5815" gradientUnits="userSpaceOnUse">
<stop stop-color="#FFA91E"/>
<stop offset="0.5" stop-color="#4D3309"/>
<stop offset="1" stop-color="#FFA91E"/>
</linearGradient>
</defs>
</svg>
