<svg width="168" height="167" viewBox="0 0 168 167" fill="none" xmlns="http://www.w3.org/2000/svg">
<mask id="mask0_1801_11295" style="mask-type:alpha" maskUnits="userSpaceOnUse" x="0" y="0" width="168" height="167">
<path d="M168 0H0V167C0 167 22.4583 167 82.4833 167C142.508 167 168 167 168 167V0Z" fill="#222120"/>
</mask>
<g mask="url(#mask0_1801_11295)">
<path d="M-74.9845 123.234L-65.3988 111.23H-46.0881L-59.7388 97.6297L-58.0044 82.3859L-42.7045 80.6501L-29.0538 94.2507V75.0108L-17.0059 65.4603L-5.30646 74.7408L-6.98665 59.983L6.66397 46.3824H-12.6467L-22.2324 34.3787L-12.6467 22.375H6.66397L-6.98665 8.77435L-5.24451 -6.46944L10.0554 -8.19749L23.706 5.40313V-13.8368L35.7539 -23.3873L47.8018 -13.8368V5.40313L61.4525 -8.19749L76.3962 -6.50802L67.0351 -18.2263L76.6208 -30.23H95.9315L82.2808 -43.8306L84.023 -59.0744L99.3229 -60.8025L112.974 -47.2019V-66.4495L125.021 -76L137.069 -66.4495V-47.2096L150.72 -60.8102L166.02 -59.0822L167.754 -43.8384L154.104 -30.2377H173.414L183 -18.234L173.414 -6.23029H154.104L167.754 7.37032L166.02 22.6141L150.72 24.3499L137.069 10.7493V29.9892L126.4 38.4519L114.785 72.4882L76.6517 75.2886L70.6433 108.214L39.9583 124.499L31.3792 135.238H12.0685L25.7192 148.838L23.9771 164.082L8.67715 165.81L-4.97353 152.21V171.449L-17.0214 181L-29.0693 171.449V152.21L-42.72 165.81L-58.0199 164.082L-59.7543 148.838L-46.1036 135.238H-65.4143L-75 123.234H-74.9845ZM-42.4955 161.043L-30.703 149.294C-32.8246 148.746 -36.6264 148.252 -39.8164 150.428C-42.7819 152.449 -42.8904 157.648 -42.4955 161.043ZM-20.1728 158.535C-20.8774 154.778 -23.9203 152.441 -25.8096 151.322V167.932C-23.1228 165.81 -19.5069 162.069 -20.1728 158.535ZM-17.0059 157.887C-15.9374 152.325 -11.3149 149.286 -9.07724 148.105L-17.0059 140.206L-24.9347 148.105C-22.6892 149.278 -18.0744 152.325 -17.0059 157.887ZM-8.19458 151.322C-10.0838 152.441 -13.1268 154.778 -13.8314 158.535C-14.4973 162.061 -10.8814 165.802 -8.19458 167.932V151.33V151.322ZM5.80453 150.428C2.6377 148.267 -1.1718 148.761 -3.30109 149.301L8.48358 161.043C8.87846 157.648 8.77779 152.456 5.79678 150.428H5.80453ZM9.1572 136.881C8.60745 138.995 8.11189 142.782 10.2954 145.961C12.324 148.915 17.5427 149.023 20.9496 148.63L9.1572 136.881ZM133.825 9.8621C131.936 10.9807 128.893 13.3182 128.188 17.0751C127.522 20.6006 131.138 24.3422 133.825 26.4714V9.86981V9.8621ZM147.824 8.96722C144.657 6.80717 140.848 7.3009 138.719 7.8409L150.503 19.5823C150.898 16.188 150.797 10.9961 147.816 8.96722H147.824ZM151.177 -4.5794C150.627 -2.46563 150.132 1.32217 152.315 4.50053C154.344 7.45518 159.562 7.56318 162.969 7.16975L151.177 -4.5794ZM162.961 -43.6301C159.555 -44.0235 154.344 -43.9155 152.307 -40.9609C150.139 -37.8056 150.635 -34.0101 151.177 -31.8886L162.961 -43.6301ZM150.511 -56.0427L138.719 -44.2935C140.84 -43.7458 144.642 -43.2521 147.832 -45.4275C150.797 -47.4487 150.906 -52.6483 150.511 -56.0427ZM128.188 -53.5354C128.893 -49.7785 131.936 -47.441 133.825 -46.3224V-62.9317C131.138 -60.8102 127.522 -57.0687 128.188 -53.5354ZM125.014 -52.8874C123.937 -47.3253 119.323 -44.2858 117.085 -43.1055L125.014 -35.2059L132.942 -43.1055C130.697 -44.2781 126.082 -47.3253 125.014 -52.8874ZM116.21 -46.3224C118.099 -47.441 121.142 -49.7785 121.847 -53.5354C122.513 -57.061 118.897 -60.8025 116.21 -62.9317V-46.3301V-46.3224ZM102.203 -45.4275C105.37 -43.2675 109.18 -43.7612 111.309 -44.3012L99.5242 -56.0427C99.1293 -52.6483 99.2299 -47.4564 102.211 -45.4275H102.203ZM98.8583 -31.8809C99.408 -33.9947 99.9036 -37.7825 97.7201 -40.9609C95.6915 -43.9155 90.4728 -44.0235 87.0659 -43.6301L98.8583 -31.8809ZM61.2435 -3.43766L49.451 8.31149C51.5726 8.85921 55.3744 9.35294 58.5644 7.17746C61.5299 5.15627 61.6384 -0.0432892 61.2435 -3.43766ZM38.9208 -0.93045C39.6254 2.82649 42.6683 5.16399 44.5576 6.28259V-10.3267C41.8708 -8.2052 38.2549 -4.46368 38.9208 -0.93045ZM35.7539 -0.274719C34.6777 5.28741 30.0629 8.32692 27.8252 9.49952L35.7539 17.3991L43.6826 9.49952C41.4372 8.32692 36.8224 5.2797 35.7539 -0.274719ZM26.9425 6.28259C28.8318 5.16399 31.8748 2.82649 32.5794 -0.93045C33.2453 -4.45597 29.6293 -8.19749 26.9425 -10.3267V6.27487V6.28259ZM12.9357 7.17746C16.1026 9.33752 19.912 8.84379 22.0413 8.30377L10.2567 -3.43766C9.86179 -0.0432892 9.96246 5.14855 12.9435 7.17746H12.9357ZM9.59081 20.7241C10.1405 18.6103 10.6361 14.8225 8.45258 11.6441C6.42395 8.6895 1.20529 8.5815 -2.20157 8.97494L9.59081 20.7241ZM-2.20157 59.7747C1.20529 60.1682 6.42395 60.0602 8.45258 57.1055C10.6206 53.9503 10.125 50.1548 9.58305 48.0333L-2.20157 59.7747ZM-13.8314 87.9326C-13.1268 91.6895 -10.0838 94.027 -8.19458 95.1456V78.5363C-10.8814 80.6578 -14.4973 84.3994 -13.8314 87.9326ZM-17.0059 88.5806C-18.0822 94.1427 -22.697 97.1822 -24.9347 98.3548L-17.0059 106.254L-9.07724 98.3548C-11.3227 97.1822 -15.9374 94.135 -17.0059 88.5806ZM-25.8096 95.1379C-23.9203 94.0193 -20.8774 91.6818 -20.1728 87.9249C-19.5069 84.3994 -23.1228 80.6578 -25.8096 78.5286V95.1302V95.1379ZM-39.8164 96.0328C-36.6496 98.1928 -32.8401 97.6991 -30.7108 97.1591L-42.4955 85.4177C-42.8904 88.812 -42.7897 94.0039 -39.8087 96.0328H-39.8164ZM-43.1613 109.579C-42.6116 107.466 -42.116 103.678 -44.2995 100.499C-46.3282 97.5448 -51.5468 97.4368 -54.9537 97.8302L-43.1613 109.579ZM-41.5973 147.735C-36.8896 144.557 -31.4696 145.66 -29.0461 146.408V135.238H-40.2655C-39.5145 137.652 -38.4072 143.052 -41.5973 147.735ZM-29.0538 132.005V128.202L-31.7561 125.51L-38.2756 132.005H-29.0538ZM-13.3591 132.005L-8.20229 126.868V119.6L-13.3591 114.463H-20.6528L-25.8096 119.6V126.868L-20.6528 132.005H-13.3591ZM-17.4163 135.238L-17.0059 135.647L-16.5956 135.238H-17.4163ZM61.2435 72.1873C61.6384 68.793 61.5299 63.5934 58.5644 61.5722C55.3976 59.4122 51.5881 59.9059 49.4588 60.4459L61.2435 72.1873ZM112.966 28.4463V10.7415L99.3151 24.3422L84.3714 22.6527L93.7325 34.371L84.1468 46.3747H64.8361L76.8918 58.3861L112.966 28.4463ZM89.0094 52.5309L111.015 67.9135L103.07 40.8666L89.0171 52.5309H89.0094ZM125.014 16.4271C126.082 10.865 130.705 7.82548 132.942 6.65288L125.014 -1.24674L117.085 6.65288C119.33 7.82548 123.945 10.8727 125.014 16.4271ZM137.062 -23.2021L139.764 -20.5098L146.283 -27.0054H137.069V-23.2021H137.062ZM133.825 -27.0054H133.244L133.825 -26.4268V-27.0054ZM137.062 -18.6429V-17.8251L137.472 -18.234L137.062 -18.6429ZM139.764 -15.9505L137.062 -13.2582V-9.45494H146.276L139.756 -15.9505H139.764ZM149.984 -10.3267C151.161 -12.5639 154.22 -17.1617 159.795 -18.2263C154.212 -19.2986 151.161 -23.8964 149.984 -26.1259L142.056 -18.2263L149.984 -10.3267ZM133.825 -10.0335L133.244 -9.45494H133.825V-10.0335ZM133.825 -14.5928V-21.8598L128.668 -26.9977H121.375L116.218 -21.8598V-14.5928L121.375 -9.45494H128.668L133.825 -14.5928ZM125.424 -30.2377L125.014 -30.6466L124.603 -30.2377H125.424ZM32.0993 25.5996L26.9425 30.7375V38.0122L32.0993 43.1501H39.3931L44.5499 38.0122V30.7452L39.3931 25.6073H32.0993V25.5996ZM36.1566 22.375L35.7462 21.9661L35.3358 22.375H36.1566ZM10.2567 72.1873L22.0491 60.4382C19.9276 59.8905 16.1258 59.3967 12.9357 61.5722C9.9702 63.5934 9.86179 68.793 10.2567 72.1873ZM32.5794 69.6801C31.8748 65.9232 28.8318 63.5857 26.9425 62.4671V79.0764C29.6293 76.9549 33.2453 73.2134 32.5794 69.6801ZM35.7539 69.0321C36.8302 63.47 41.4449 60.4305 43.6826 59.2579L35.7539 51.3583L27.8252 59.2579C30.0707 60.4305 34.6854 63.4777 35.7539 69.0321ZM44.5576 62.4594C42.676 63.5703 39.6331 65.8923 38.9208 69.6801C38.2549 73.2056 41.8708 76.9472 44.5576 79.0764V62.4594ZM73.6166 34.3787C78.1694 35.2196 81.9401 39.5165 83.659 41.8077L89.5978 34.3787L83.659 26.9497C81.9401 29.2409 78.1694 33.5378 73.6166 34.3864V34.3787ZM47.8018 39.3468V43.1501H57.0158L50.4964 36.6545L47.7941 39.3468H47.8018ZM48.2045 34.3787L47.7941 33.9698V34.7876L48.2045 34.3787ZM44.5576 42.5715L43.9768 43.1501H44.5576V42.5715ZM60.7169 42.2783C61.8938 40.0411 64.9523 35.4433 70.5272 34.3787C64.9445 33.3064 61.8938 28.7086 60.7169 26.4791L52.7882 34.3787L60.7169 42.2783ZM71.1853 37.5339C67.4145 38.2359 65.0684 41.2677 63.9457 43.1501H80.6161C78.4868 40.4731 74.7238 36.8705 71.1853 37.5339ZM59.0135 46.3747H47.7941V57.553C50.2099 56.8047 55.6376 55.7015 60.3375 58.8799C57.1475 54.1895 58.2547 48.7893 59.0058 46.3824L59.0135 46.3747ZM44.5576 46.3747H40.7403L38.0381 49.0671L44.5576 55.5626V46.3747ZM36.1566 46.3747H35.3358L35.7462 46.7836L36.1566 46.3747ZM33.4621 49.0671L30.7598 46.3747H26.9425V55.5626L33.4621 49.0671ZM27.5233 43.1501L26.9425 42.5715V43.1501H27.5233ZM23.706 57.553V46.3747H12.4866C13.2377 48.7816 14.3449 54.1895 11.1549 58.8799C15.8625 55.7015 21.2825 56.8047 23.706 57.553ZM23.706 39.3468L21.0038 36.6545L14.4843 43.1501H23.706V39.3468ZM23.706 34.7799V33.9621L23.2957 34.371L23.706 34.7799ZM21.0038 32.0952L23.706 29.4029V25.5996H14.4843L21.0038 32.0952ZM10.7832 26.4714C9.60626 28.7086 6.54785 33.3064 0.972992 34.371C6.55559 35.4433 9.60626 40.0411 10.7832 42.2706L18.7119 34.371L10.7832 26.4714ZM26.9425 26.1782L27.5233 25.5996H26.9425V26.1782ZM44.5576 26.1782V25.5996H43.9768L44.5576 26.1782ZM47.8018 29.4029L50.5041 32.0952L57.0236 25.5996H47.8096V29.4029H47.8018ZM59.0135 22.375C58.2625 19.9681 57.1552 14.5602 60.3453 9.87753C57.9295 11.513 55.3202 12.0144 53.0206 12.0144C50.8526 12.0144 48.971 11.567 47.8018 11.2044V22.375H59.0213H59.0135ZM71.1853 31.2158C74.7238 31.8792 78.4868 28.2765 80.6161 25.5996H63.938C65.0529 27.4742 67.3835 30.506 71.1853 31.2158ZM112.966 -13.2582L110.264 -15.9505L103.744 -9.45494H112.958V-13.2582H112.966ZM116.21 -9.45494H116.791L116.21 -10.0335V-9.45494ZM112.966 -17.8251V-18.6429L112.555 -18.234L112.966 -17.8251ZM101.754 -6.23029C102.505 -3.82338 103.612 1.58447 100.422 6.26715C105.13 3.08879 110.55 4.19196 112.966 4.94026V-6.23801H101.746L101.754 -6.23029ZM102.203 8.96722C99.2377 10.9884 99.1293 16.188 99.5242 19.5823L111.309 7.8409C109.18 7.3009 105.37 6.80717 102.203 8.96722ZM98.2389 8.45035C95.8153 10.109 92.6176 10.5564 89.8843 10.5564C88.3203 10.5564 86.9033 10.4098 85.8658 10.2633L86.942 19.6981L96.4116 20.7704C96.0012 17.9392 95.614 12.2536 98.2311 8.45035H98.2389ZM97.7201 4.50053C99.8881 1.34531 99.3925 -2.4502 98.8505 -4.57169L87.0659 7.16975C90.4728 7.56318 95.6837 7.46289 97.7201 4.49282V4.50053ZM107.979 -18.234L100.051 -26.1336C98.8738 -23.8964 95.8153 -19.2986 90.2405 -18.234C95.8231 -17.1617 98.8738 -12.5639 100.051 -10.3344L107.979 -18.234ZM110.271 -20.5098L112.974 -23.2021V-27.0054H103.76L110.279 -20.5098H110.271ZM116.21 -26.4268L116.791 -27.0054H116.21V-26.4268ZM124.603 -6.23029L125.014 -5.82143L125.424 -6.23029H124.603ZM120.027 -6.23029H116.21V2.95764L122.73 -3.53794L120.027 -6.23029ZM121.847 17.0674C121.142 13.3105 118.099 10.973 116.21 9.85439V26.4637C118.897 24.3422 122.513 20.6006 121.847 17.0674ZM61.9093 48.0256C61.3596 50.1394 60.864 53.9272 63.0475 57.1055C65.0762 60.0679 70.2949 60.1682 73.7017 59.7747L61.9093 48.0256ZM35.7539 72.1025C34.91 76.6386 30.5972 80.3955 28.2975 82.1081L35.7539 88.0251L43.2103 82.1081C40.9107 80.3955 36.5979 76.6386 35.7539 72.1025ZM-12.0118 111.23H-8.19458V102.042L-14.7141 108.538L-12.0118 111.23ZM-17.0059 110.821L-17.4163 111.23H-16.5956L-17.0059 110.821ZM-2.25577 120.951L4.2637 114.455H-4.95032V118.258L-2.24802 120.951H-2.25577ZM-4.95802 122.825V123.643L-4.54768 123.234L-4.95802 122.825ZM7.59312 98.7328C5.17735 100.368 2.56804 100.87 0.268402 100.87C-1.8996 100.87 -3.78114 100.422 -4.95032 100.06V111.23H6.26913C5.51807 108.823 4.41081 103.416 7.60088 98.7328H7.59312ZM-8.19458 114.455H-8.7753L-8.19458 115.034V114.455ZM5.80453 96.0328C8.77005 94.0116 8.87846 88.812 8.48358 85.4177L-3.30879 97.1668C-1.18724 97.7145 2.61447 98.2083 5.80453 96.0328ZM9.76888 96.5574C13.5861 93.9422 19.3004 94.3279 22.142 94.7368L21.0657 85.3019L11.5962 84.2296C12.0066 87.0608 12.3937 92.7618 9.76888 96.5574ZM10.2954 100.507C8.12738 103.662 8.62296 107.458 9.16495 109.579L20.9496 97.838C17.5427 97.4445 12.3318 97.5525 10.2954 100.507ZM0.036087 123.234L7.96481 131.134C9.14174 128.896 12.2001 124.299 17.775 123.234C12.1924 122.162 9.14174 117.564 7.96481 115.334L0.036087 123.234ZM-2.25577 125.518L-4.95802 128.21V132.013H4.2637L-2.25577 125.518ZM-8.19458 131.435L-8.7753 132.013H-8.19458V131.435ZM-29.0538 118.258V114.455H-38.2679L-31.7484 120.951L-29.0461 118.258H-29.0538ZM-29.4642 123.234L-29.0538 123.643V122.825L-29.4642 123.234ZM-25.8096 115.034L-25.2289 114.455H-25.8096V115.034ZM-25.8096 131.435V132.013H-25.2289L-25.8096 131.435ZM-41.9767 115.327C-43.1536 117.564 -46.2121 122.162 -51.7869 123.226C-46.2043 124.299 -43.1536 128.896 -41.9767 131.126L-34.048 123.226L-41.9767 115.327ZM-52.4373 120.071C-48.6665 119.369 -46.3204 116.337 -45.1977 114.455H-61.8681C-59.7388 117.132 -55.9835 120.735 -52.4373 120.071ZM-29.0538 111.23V100.06C-30.2307 100.422 -32.1123 100.87 -34.2726 100.87C-36.5644 100.87 -39.1815 100.368 -41.5973 98.7328C-38.4072 103.423 -39.5145 108.823 -40.2655 111.23H-29.0461H-29.0538ZM-25.8096 111.23H-21.9923L-19.2901 108.538L-25.8096 102.042V111.23ZM8.69264 80.6501L23.6983 82.3473V63.3466L10.0477 76.9472L-4.95802 75.25V94.243L8.69264 80.6424V80.6501ZM7.15178 73.3831C6.74141 70.5519 6.35429 64.8663 8.97137 61.0631C6.54787 62.7217 3.35004 63.1691 0.616806 63.1691C-0.947266 63.1691 -2.36421 63.0225 -3.40175 62.876L-2.32549 72.3108L7.14407 73.3831H7.15178ZM0.322571 37.5339C-3.21593 36.8705 -6.97121 40.4731 -9.10823 43.1501H7.56993C6.45496 41.2754 4.12431 38.2436 0.322571 37.5339ZM0.322571 31.2158C4.09334 30.5137 6.43945 27.482 7.56218 25.5996H-9.10823C-6.97894 28.2765 -3.21593 31.8869 0.322571 31.2158ZM23.706 22.375V11.2044C22.5291 11.567 20.6476 12.0144 18.4874 12.0144C16.1954 12.0144 13.5784 11.513 11.1626 9.87753C14.3526 14.5679 13.2454 19.9681 12.4944 22.375H23.7138H23.706ZM26.9425 22.375H30.7598L33.4621 19.6826L26.9425 13.187V22.375ZM38.0381 19.6826L40.7403 22.375H44.5576V13.187L38.0381 19.6826ZM61.9171 20.7164L73.7017 8.97494C70.2949 8.5815 65.0839 8.68179 63.0475 11.6519C60.8795 14.8071 61.3751 18.6026 61.9171 20.7241V20.7164ZM64.8361 22.375H83.992L82.2808 7.37804L95.9315 -6.22258H76.7757L78.4868 8.77435L64.8361 22.375ZM96.8219 -9.45494C95.6992 -11.3373 93.3531 -14.3691 89.5823 -15.0711C86.0438 -15.7345 82.2808 -12.1319 80.1515 -9.45494H96.8219ZM89.5823 -21.3892C93.3531 -22.0913 95.6992 -25.123 96.8219 -27.0054H80.1515C82.2808 -24.3285 86.0361 -20.7258 89.5823 -21.3892ZM112.966 -30.2377V-41.4083C111.789 -41.0457 109.907 -40.5983 107.747 -40.5983C105.455 -40.5983 102.838 -41.0997 100.422 -42.7352C103.612 -38.0448 102.505 -32.6447 101.754 -30.2377H112.974H112.966ZM116.21 -30.2377H120.027L122.73 -32.9301L116.21 -39.4257V-30.2377ZM127.306 -32.9224L130.008 -30.23H133.825V-39.418L127.306 -32.9224ZM137.062 -30.2377H148.281C147.53 -32.6447 146.423 -38.0525 149.613 -42.7352C147.197 -41.0997 144.588 -40.5983 142.288 -40.5983C140.12 -40.5983 138.239 -41.0457 137.069 -41.4083V-30.2377H137.062ZM160.445 -21.3892C163.991 -20.7335 167.747 -24.3285 169.876 -27.0054H153.205C154.328 -25.123 156.674 -22.0913 160.445 -21.3892ZM160.445 -15.0711C156.674 -14.3691 154.328 -11.3373 153.205 -9.45494H169.876C167.747 -12.1319 163.984 -15.7345 160.445 -15.0711ZM137.062 -6.23029V4.94798C139.477 4.19968 144.905 3.0965 149.605 6.27487C146.415 1.58447 147.522 -3.81567 148.273 -6.22258H137.054L137.062 -6.23029ZM133.825 -6.23029H130.008L127.306 -3.53794L133.825 2.95764V-6.23029ZM125.014 19.4898C124.17 24.0259 119.857 27.7828 117.557 29.4954L125.014 35.4124L132.47 29.4954C130.17 27.7828 125.85 24.0259 125.014 19.4898ZM114.607 31.2852L105.78 38.614L113.709 65.5992L123.117 38.0276L114.615 31.2852H114.607ZM86.431 54.6678L78.3242 61.3948L77.1163 72.0099L108.003 69.7419L86.4387 54.6678H86.431ZM74.9018 62.8682C73.8643 63.0148 72.4551 63.1614 70.8833 63.1614C68.1501 63.1614 64.9523 62.714 62.5288 61.0554C65.1459 64.8586 64.7587 70.5442 64.3483 73.3754L73.8179 72.3031L74.8941 62.8682H74.9018ZM47.8018 63.3543V82.5942L35.7539 92.1447L24.0545 82.8642L25.7346 97.6219L12.084 111.223H29.8539L59.8575 75.358L47.8018 63.3466V63.3543ZM42.8929 100.677L65.9201 105.244L53.8103 87.624L42.8929 100.677ZM40.5313 103.5L32.6955 112.866L39.3311 121.174L63.8915 108.137L40.5236 103.5H40.5313ZM11.1936 114.455C12.3163 116.337 14.6624 119.369 18.4331 120.071C21.9794 120.735 25.7346 117.132 27.8639 114.455H11.1936ZM18.4254 126.389C14.6546 127.091 12.3085 130.123 11.1858 132.005H27.8562C25.727 129.328 21.9639 125.726 18.4254 126.389ZM-4.95802 135.238V146.416C-2.53452 145.668 2.88547 144.565 7.59312 147.743C4.40306 143.052 5.51031 137.652 6.26138 135.245H-4.95802V135.238ZM-8.19458 135.238H-12.0118L-14.7141 137.93L-8.19458 144.426V135.238ZM-19.2978 137.922L-22.0001 135.23H-25.8173V144.418L-19.2978 137.922ZM-43.1691 136.889L-54.9537 148.63C-51.5468 149.023 -46.3359 148.915 -44.2995 145.961C-42.1315 142.806 -42.6271 139.01 -43.1691 136.889ZM-52.4373 126.389C-55.9758 125.726 -59.7388 129.328 -61.8681 132.005H-45.1977C-46.3204 130.123 -48.6665 127.091 -52.4373 126.389ZM-64.9111 130.663C-63.1922 128.372 -59.4214 124.075 -54.8685 123.234C-59.4214 122.393 -63.1922 118.088 -64.9111 115.797L-70.8498 123.234L-64.9111 130.663ZM-56.1538 94.7368C-53.3122 94.3279 -47.5903 93.9422 -43.7808 96.5574C-46.4056 92.7541 -46.0184 87.0608 -45.6081 84.2296L-55.0776 85.3019L-56.1538 94.7368ZM-24.4623 75.5046C-22.1627 77.2172 -17.8421 80.9741 -17.0059 85.5102C-16.162 80.9741 -11.8492 77.2172 -9.54959 75.5046L-17.0059 69.5876L-24.4623 75.5046ZM-12.1512 41.8077C-10.4323 39.5165 -6.65372 35.2196 -2.10866 34.3787C-6.66147 33.5378 -10.4323 29.2331 -12.1512 26.9419L-18.0899 34.371L-12.1512 41.8077ZM-3.40175 5.88143C-0.56012 5.47256 5.1619 5.08684 8.97137 7.70204C6.34654 3.89881 6.7337 -1.79447 7.14407 -4.62569L-2.32549 -3.55337L-3.40175 5.88143ZM28.2898 -13.3508C30.5895 -11.6381 34.9022 -7.8812 35.7462 -3.34509C36.5901 -7.8812 40.9029 -11.6381 43.2026 -13.3508L35.7462 -19.2678L28.2898 -13.3508ZM64.3483 -4.6334C64.7587 -1.80219 65.1458 3.89881 62.521 7.69433C66.3382 5.07912 72.0525 5.46484 74.8941 5.87371L73.8179 -3.56109L64.3483 -4.6334ZM77.1086 -10.7973C78.8275 -13.0885 82.5983 -17.3854 87.1511 -18.2263C82.5983 -19.0672 78.8275 -23.3719 77.1086 -25.6631L71.1698 -18.234L77.1086 -10.805V-10.7973ZM85.8658 -46.7236C88.7074 -47.1324 94.4294 -47.5182 98.2389 -44.903C95.614 -48.7062 96.0012 -54.3995 96.4116 -57.2307L86.942 -56.1584L85.8658 -46.7236ZM117.557 -65.9635C119.857 -64.2509 124.177 -60.4939 125.014 -55.9578C125.858 -60.4939 130.17 -64.2509 132.47 -65.9635L125.014 -71.8805L117.557 -65.9635ZM153.616 -57.2384C154.026 -54.4072 154.413 -48.7062 151.789 -44.9107C155.606 -47.5259 161.32 -47.1402 164.162 -46.7313L163.085 -56.1661L153.616 -57.2384ZM172.919 -25.6631C171.2 -23.3719 167.429 -19.0749 162.876 -18.2263C167.429 -17.3854 171.2 -13.0885 172.919 -10.7973L178.858 -18.2263L172.919 -25.6553V-25.6631ZM164.162 10.2633C163.124 10.4098 161.715 10.5564 160.143 10.5564C157.41 10.5564 154.22 10.109 151.789 8.45035C154.406 12.2536 154.018 17.9392 153.608 20.7704L163.078 19.6981L164.154 10.2633H164.162ZM73.2991 75.6126L62.8695 76.7929L55.9628 85.0474L68.305 102.999L73.2991 75.6048V75.6126ZM30.8992 115.797C29.1803 118.088 25.4095 122.393 20.8567 123.234C25.4095 124.075 29.1803 128.372 30.8992 130.663L36.838 123.234L30.8992 115.797ZM22.142 151.724C21.1045 151.87 19.6953 152.017 18.1235 152.017C15.3902 152.017 12.1924 151.569 9.76888 149.911C12.386 153.714 11.9988 159.399 11.5885 162.231L21.058 161.158L22.1342 151.716L22.142 151.724ZM-9.54184 170.963C-11.8415 169.251 -16.162 165.494 -16.9982 160.958C-17.8422 165.494 -22.155 169.251 -24.4546 170.963L-16.9982 176.88L-9.54184 170.963ZM-45.6004 162.238C-46.0107 159.407 -46.3979 153.722 -43.7808 149.918C-46.2043 151.577 -49.4021 152.024 -52.1353 152.024C-53.6994 152.024 -55.1163 151.878 -56.1538 151.731L-55.0776 161.174L-45.6081 162.246L-45.6004 162.238Z" fill="#FFC36C" fill-opacity="0.25"/>
</g>
</svg>
