<svg width="168" height="167" viewBox="0 0 168 167" fill="none" xmlns="http://www.w3.org/2000/svg">
<mask id="mask0_1801_11298" style="mask-type:alpha" maskUnits="userSpaceOnUse" x="0" y="0" width="168" height="167">
<path d="M0 0H168V167C168 167 145.542 167 85.5167 167C25.4917 167 0 167 0 167V0Z" fill="#222120"/>
</mask>
<g mask="url(#mask0_1801_11298)">
<path d="M242.984 123.234L233.399 111.23H214.088L227.739 97.6297L226.004 82.3859L210.704 80.6501L197.054 94.2507V75.0108L185.006 65.4603L173.306 74.7408L174.987 59.983L161.336 46.3824H180.647L190.232 34.3787L180.647 22.375H161.336L174.987 8.77435L173.245 -6.46944L157.945 -8.19749L144.294 5.40313V-13.8368L132.246 -23.3873L120.198 -13.8368V5.40313L106.548 -8.19749L91.6038 -6.50802L100.965 -18.2263L91.3792 -30.23H72.0685L85.7192 -43.8306L83.977 -59.0744L68.6771 -60.8025L55.0265 -47.2019V-66.4495L42.9786 -76L30.9307 -66.4495V-47.2096L17.28 -60.8102L1.9801 -59.0822L0.245704 -43.8384L13.8964 -30.2377H-5.41433L-15 -18.234L-5.41433 -6.23029H13.8964L0.245704 7.37032L1.9801 22.6141L17.28 24.3499L30.9307 10.7493V29.9892L41.6003 38.4519L53.2146 72.4882L91.3483 75.2886L97.3567 108.214L128.042 124.499L136.621 135.238H155.931L142.281 148.838L144.023 164.082L159.323 165.81L172.974 152.21V171.449L185.021 181L197.069 171.449V152.21L210.72 165.81L226.02 164.082L227.754 148.838L214.104 135.238H233.414L243 123.234H242.984ZM210.495 161.043L198.703 149.294C200.825 148.746 204.626 148.252 207.816 150.428C210.782 152.449 210.89 157.648 210.495 161.043ZM188.173 158.535C188.877 154.778 191.92 152.441 193.81 151.322V167.932C191.123 165.81 187.507 162.069 188.173 158.535ZM185.006 157.887C183.937 152.325 179.315 149.286 177.077 148.105L185.006 140.206L192.935 148.105C190.689 149.278 186.074 152.325 185.006 157.887ZM176.195 151.322C178.084 152.441 181.127 154.778 181.831 158.535C182.497 162.061 178.881 165.802 176.195 167.932V151.33V151.322ZM162.195 150.428C165.362 148.267 169.172 148.761 171.301 149.301L159.516 161.043C159.122 157.648 159.222 152.456 162.203 150.428H162.195ZM158.843 136.881C159.393 138.995 159.888 142.782 157.705 145.961C155.676 148.915 150.457 149.023 147.05 148.63L158.843 136.881ZM34.1749 9.8621C36.0642 10.9807 39.1071 13.3182 39.8117 17.0751C40.4776 20.6006 36.8617 24.3422 34.1749 26.4714V9.86981V9.8621ZM20.1759 8.96722C23.3427 6.80717 27.1521 7.30089 29.2814 7.8409L17.4968 19.5823C17.1019 16.188 17.2026 10.9961 20.1836 8.96722H20.1759ZM16.8232 -4.5794C17.3729 -2.46563 17.8685 1.32217 15.685 4.50053C13.6563 7.45518 8.43765 7.56319 5.03079 7.16975L16.8232 -4.5794ZM5.03854 -43.6301C8.4454 -44.0235 13.6563 -43.9155 15.6927 -40.9609C17.8607 -37.8056 17.3652 -34.0101 16.8232 -31.8886L5.03854 -43.6301ZM17.4891 -56.0427L29.2814 -44.2935C27.1599 -43.7458 23.3582 -43.2521 20.1681 -45.4275C17.2026 -47.4487 17.0942 -52.6483 17.4891 -56.0427ZM39.8117 -53.5354C39.1071 -49.7785 36.0642 -47.441 34.1749 -46.3224V-62.9317C36.8617 -60.8102 40.4776 -57.0687 39.8117 -53.5354ZM42.9863 -52.8874C44.0626 -47.3253 48.6773 -44.2858 50.915 -43.1055L42.9863 -35.2059L35.0576 -43.1055C37.303 -44.2781 41.9178 -47.3253 42.9863 -52.8874ZM51.7899 -46.3224C49.9007 -47.441 46.8578 -49.7785 46.1532 -53.5354C45.4873 -57.061 49.1032 -60.8025 51.7899 -62.9317V-46.3301V-46.3224ZM65.7968 -45.4275C62.63 -43.2675 58.8205 -43.7612 56.6912 -44.3012L68.4758 -56.0427C68.8707 -52.6483 68.7701 -47.4564 65.7891 -45.4275H65.7968ZM69.1417 -31.8809C68.592 -33.9947 68.0964 -37.7825 70.2799 -40.9609C72.3085 -43.9155 77.5272 -44.0235 80.9341 -43.6301L69.1417 -31.8809ZM106.757 -3.43766L118.549 8.31149C116.427 8.85922 112.626 9.35294 109.436 7.17746C106.47 5.15627 106.362 -0.0432892 106.757 -3.43766ZM129.079 -0.93045C128.375 2.8265 125.332 5.16399 123.442 6.28259V-10.3267C126.129 -8.2052 129.745 -4.46368 129.079 -0.93045ZM132.246 -0.274719C133.322 5.28741 137.937 8.32692 140.175 9.49952L132.246 17.3991L124.317 9.49952C126.563 8.32692 131.178 5.2797 132.246 -0.274719ZM141.057 6.28259C139.168 5.16399 136.125 2.8265 135.421 -0.93045C134.755 -4.45596 138.371 -8.19749 141.057 -10.3267V6.27487V6.28259ZM155.064 7.17746C151.897 9.33751 148.088 8.84379 145.959 8.30377L157.743 -3.43766C158.138 -0.0432892 158.038 5.14855 155.057 7.17746H155.064ZM158.409 20.7241C157.859 18.6103 157.364 14.8225 159.547 11.6441C161.576 8.6895 166.795 8.5815 170.202 8.97494L158.409 20.7241ZM170.202 59.7747C166.795 60.1682 161.576 60.0602 159.547 57.1055C157.379 53.9503 157.875 50.1548 158.417 48.0333L170.202 59.7747ZM181.831 87.9326C181.127 91.6895 178.084 94.027 176.195 95.1456V78.5363C178.881 80.6578 182.497 84.3993 181.831 87.9326ZM185.006 88.5806C186.082 94.1427 190.697 97.1822 192.935 98.3548L185.006 106.254L177.077 98.3548C179.323 97.1822 183.937 94.135 185.006 88.5806ZM193.81 95.1379C191.92 94.0193 188.877 91.6818 188.173 87.9249C187.507 84.3994 191.123 80.6578 193.81 78.5286V95.1302V95.1379ZM207.816 96.0328C204.65 98.1928 200.84 97.6991 198.711 97.1591L210.495 85.4177C210.89 88.812 210.79 94.0039 207.809 96.0328H207.816ZM211.161 109.579C210.612 107.466 210.116 103.678 212.3 100.499C214.328 97.5448 219.547 97.4368 222.954 97.8302L211.161 109.579ZM209.597 147.735C204.89 144.557 199.47 145.66 197.046 146.408V135.238H208.266C207.514 137.652 206.407 143.052 209.597 147.735ZM197.054 132.005V128.202L199.756 125.51L206.276 132.005H197.054ZM181.359 132.005L176.202 126.868V119.6L181.359 114.463H188.653L193.81 119.6V126.868L188.653 132.005H181.359ZM185.416 135.238L185.006 135.647L184.596 135.238H185.416ZM106.757 72.1873C106.362 68.793 106.47 63.5934 109.436 61.5722C112.602 59.4122 116.412 59.9059 118.541 60.4459L106.757 72.1873ZM55.0342 28.4463V10.7415L68.6849 24.3422L83.6286 22.6527L74.2675 34.371L83.8532 46.3747H103.164L91.1082 58.3861L55.0342 28.4463ZM78.9906 52.5309L56.9854 67.9135L64.9296 40.8666L78.9829 52.5309H78.9906ZM42.9863 16.4271C41.9178 10.865 37.2953 7.82548 35.0576 6.65288L42.9863 -1.24674L50.915 6.65288C48.6696 7.82548 44.0548 10.8727 42.9863 16.4271ZM30.9384 -23.2021L28.2362 -20.5098L21.7167 -27.0054H30.9307V-23.2021H30.9384ZM34.1749 -27.0054H34.7556L34.1749 -26.4268V-27.0054ZM30.9384 -18.6429V-17.8251L30.5281 -18.234L30.9384 -18.6429ZM28.2362 -15.9505L30.9384 -13.2582V-9.45494H21.7244L28.2439 -15.9505H28.2362ZM18.0156 -10.3267C16.8386 -12.5639 13.7802 -17.1617 8.20537 -18.2263C13.788 -19.2986 16.8386 -23.8964 18.0156 -26.1259L25.9443 -18.2263L18.0156 -10.3267ZM34.1749 -10.0335L34.7556 -9.45494H34.1749V-10.0335ZM34.1749 -14.5928V-21.8598L39.3317 -26.9977H46.6255L51.7822 -21.8598V-14.5928L46.6255 -9.45494H39.3317L34.1749 -14.5928ZM42.576 -30.2377L42.9863 -30.6466L43.3967 -30.2377H42.576ZM135.901 25.5996L141.057 30.7375V38.0122L135.901 43.1501H128.607L123.45 38.0122V30.7452L128.607 25.6073H135.901V25.5996ZM131.843 22.375L132.254 21.9661L132.664 22.375H131.843ZM157.743 72.1873L145.951 60.4382C148.072 59.8905 151.874 59.3967 155.064 61.5722C158.03 63.5934 158.138 68.793 157.743 72.1873ZM135.421 69.6801C136.125 65.9232 139.168 63.5857 141.057 62.4671V79.0764C138.371 76.9549 134.755 73.2134 135.421 69.6801ZM132.246 69.0321C131.17 63.47 126.555 60.4305 124.317 59.2579L132.246 51.3583L140.175 59.2579C137.929 60.4305 133.315 63.4777 132.246 69.0321ZM123.442 62.4594C125.324 63.5703 128.367 65.8923 129.079 69.6801C129.745 73.2056 126.129 76.9472 123.442 79.0764V62.4594ZM94.3834 34.3787C89.8306 35.2196 86.0599 39.5165 84.341 41.8077L78.4022 34.3787L84.341 26.9497C86.0599 29.2409 89.8306 33.5378 94.3834 34.3864V34.3787ZM120.198 39.3468V43.1501H110.984L117.504 36.6545L120.206 39.3468H120.198ZM119.796 34.3787L120.206 33.9698V34.7876L119.796 34.3787ZM123.442 42.5715L124.023 43.1501H123.442V42.5715ZM107.283 42.2783C106.106 40.0411 103.048 35.4433 97.4728 34.3787C103.055 33.3064 106.106 28.7086 107.283 26.4791L115.212 34.3787L107.283 42.2783ZM96.8147 37.5339C100.585 38.2359 102.932 41.2677 104.054 43.1501H87.3839C89.5132 40.4731 93.2762 36.8705 96.8147 37.5339ZM108.986 46.3747H120.206V57.553C117.79 56.8047 112.362 55.7015 107.662 58.8799C110.853 54.1895 109.745 48.7893 108.994 46.3824L108.986 46.3747ZM123.442 46.3747H127.26L129.962 49.0671L123.442 55.5626V46.3747ZM131.843 46.3747H132.664L132.254 46.7836L131.843 46.3747ZM134.538 49.0671L137.24 46.3747H141.057V55.5626L134.538 49.0671ZM140.477 43.1501L141.057 42.5715V43.1501H140.477ZM144.294 57.553V46.3747H155.513C154.762 48.7816 153.655 54.1895 156.845 58.8799C152.137 55.7015 146.717 56.8047 144.294 57.553ZM144.294 39.3468L146.996 36.6545L153.516 43.1501H144.294V39.3468ZM144.294 34.7799V33.9621L144.704 34.371L144.294 34.7799ZM146.996 32.0952L144.294 29.4029V25.5996H153.516L146.996 32.0952ZM157.217 26.4714C158.394 28.7086 161.452 33.3064 167.027 34.371C161.444 35.4433 158.394 40.0411 157.217 42.2706L149.288 34.371L157.217 26.4714ZM141.057 26.1782L140.477 25.5996H141.057V26.1782ZM123.442 26.1782V25.5996H124.023L123.442 26.1782ZM120.198 29.4029L117.496 32.0952L110.976 25.5996H120.19V29.4029H120.198ZM108.986 22.375C109.738 19.9681 110.845 14.5602 107.655 9.87753C110.071 11.513 112.68 12.0144 114.979 12.0144C117.147 12.0144 119.029 11.567 120.198 11.2044V22.375H108.979H108.986ZM96.8147 31.2158C93.2762 31.8792 89.5132 28.2766 87.3839 25.5996H104.062C102.947 27.4742 100.616 30.506 96.8147 31.2158ZM55.0342 -13.2582L57.7365 -15.9505L64.256 -9.45494H55.042V-13.2582H55.0342ZM51.7899 -9.45494H51.2092L51.7899 -10.0335V-9.45494ZM55.0342 -17.8251V-18.6429L55.4446 -18.234L55.0342 -17.8251ZM66.2459 -6.23029C65.4948 -3.82338 64.3876 1.58447 67.5777 6.26715C62.87 3.08879 57.45 4.19196 55.0342 4.94026V-6.23801H66.2536L66.2459 -6.23029ZM65.7968 8.96722C68.7623 10.9884 68.8707 16.188 68.4758 19.5823L56.6912 7.8409C58.8205 7.30089 62.63 6.80717 65.7968 8.96722ZM69.7611 8.45035C72.1847 10.109 75.3824 10.5564 78.1157 10.5564C79.6797 10.5564 81.0967 10.4098 82.1342 10.2633L81.058 19.6981L71.5884 20.7704C71.9988 17.9391 72.386 12.2536 69.7689 8.45035H69.7611ZM70.2799 4.50053C68.1119 1.34531 68.6075 -2.4502 69.1495 -4.57169L80.9341 7.16975C77.5272 7.56319 72.3163 7.46289 70.2799 4.49282V4.50053ZM60.0206 -18.234L67.9493 -26.1336C69.1262 -23.8964 72.1847 -19.2986 77.7595 -18.234C72.1769 -17.1617 69.1262 -12.5639 67.9493 -10.3344L60.0206 -18.234ZM57.7288 -20.5098L55.0265 -23.2021V-27.0054H64.2405L57.721 -20.5098H57.7288ZM51.7899 -26.4268L51.2092 -27.0054H51.7899V-26.4268ZM43.3967 -6.23029L42.9863 -5.82143L42.576 -6.23029H43.3967ZM47.9727 -6.23029H51.7899V2.95764L45.2705 -3.53794L47.9727 -6.23029ZM46.1532 17.0674C46.8578 13.3105 49.9007 10.973 51.7899 9.85439V26.4637C49.1032 24.3422 45.4873 20.6006 46.1532 17.0674ZM106.091 48.0256C106.64 50.1394 107.136 53.9272 104.952 57.1055C102.924 60.0679 97.7051 60.1682 94.2983 59.7747L106.091 48.0256ZM132.246 72.1025C133.09 76.6386 137.403 80.3955 139.702 82.1081L132.246 88.0251L124.79 82.1081C127.089 80.3955 131.402 76.6386 132.246 72.1025ZM180.012 111.23H176.195V102.042L182.714 108.538L180.012 111.23ZM185.006 110.821L185.416 111.23H184.596L185.006 110.821ZM170.256 120.951L163.736 114.455H172.95V118.258L170.248 120.951H170.256ZM172.958 122.825V123.643L172.548 123.234L172.958 122.825ZM160.407 98.7328C162.823 100.368 165.432 100.87 167.732 100.87C169.9 100.87 171.781 100.422 172.95 100.06V111.23H161.731C162.482 108.823 163.589 103.416 160.399 98.7328H160.407ZM176.195 114.455H176.775L176.195 115.034V114.455ZM162.195 96.0328C159.23 94.0116 159.122 88.812 159.516 85.4177L171.309 97.1668C169.187 97.7145 165.386 98.2083 162.195 96.0328ZM158.231 96.5574C154.414 93.9422 148.7 94.3279 145.858 94.7368L146.934 85.3019L156.404 84.2296C155.993 87.0608 155.606 92.7618 158.231 96.5574ZM157.705 100.507C159.873 103.662 159.377 107.458 158.835 109.579L147.05 97.838C150.457 97.4445 155.668 97.5525 157.705 100.507ZM167.964 123.234L160.035 131.134C158.858 128.896 155.8 124.299 150.225 123.234C155.808 122.162 158.858 117.564 160.035 115.334L167.964 123.234ZM170.256 125.518L172.958 128.21V132.013H163.736L170.256 125.518ZM176.195 131.435L176.775 132.013H176.195V131.435ZM197.054 118.258V114.455H206.268L199.748 120.951L197.046 118.258H197.054ZM197.464 123.234L197.054 123.643V122.825L197.464 123.234ZM193.81 115.034L193.229 114.455H193.81V115.034ZM193.81 131.435V132.013H193.229L193.81 131.435ZM209.977 115.327C211.154 117.564 214.212 122.162 219.787 123.226C214.204 124.299 211.154 128.896 209.977 131.126L202.048 123.226L209.977 115.327ZM220.437 120.071C216.667 119.369 214.32 116.337 213.198 114.455H229.868C227.739 117.132 223.984 120.735 220.437 120.071ZM197.054 111.23V100.06C198.231 100.422 200.112 100.87 202.273 100.87C204.564 100.87 207.182 100.368 209.597 98.7328C206.407 103.423 207.514 108.823 208.266 111.23H197.046H197.054ZM193.81 111.23H189.992L187.29 108.538L193.81 102.042V111.23ZM159.307 80.6501L144.302 82.3473V63.3466L157.952 76.9472L172.958 75.25V94.243L159.307 80.6424V80.6501ZM160.848 73.3831C161.259 70.5519 161.646 64.8663 159.029 61.0631C161.452 62.7217 164.65 63.1691 167.383 63.1691C168.947 63.1691 170.364 63.0225 171.402 62.876L170.325 72.3108L160.856 73.3831H160.848ZM167.677 37.5339C171.216 36.8705 174.971 40.4731 177.108 43.1501H160.43C161.545 41.2754 163.876 38.2436 167.677 37.5339ZM167.677 31.2158C163.907 30.5137 161.561 27.482 160.438 25.5996H177.108C174.979 28.2766 171.216 31.8869 167.677 31.2158ZM144.294 22.375V11.2044C145.471 11.567 147.352 12.0144 149.513 12.0144C151.805 12.0144 154.422 11.513 156.837 9.87753C153.647 14.5679 154.755 19.9681 155.506 22.375H144.286H144.294ZM141.057 22.375H137.24L134.538 19.6826L141.057 13.187V22.375ZM129.962 19.6826L127.26 22.375H123.442V13.187L129.962 19.6826ZM106.083 20.7164L94.2983 8.97494C97.7051 8.5815 102.916 8.68179 104.952 11.6519C107.12 14.8071 106.625 18.6026 106.083 20.7241V20.7164ZM103.164 22.375H84.008L85.7192 7.37804L72.0685 -6.22258H91.2243L89.5132 8.77435L103.164 22.375ZM71.1781 -9.45494C72.3008 -11.3373 74.6469 -14.3691 78.4177 -15.0711C81.9562 -15.7345 85.7192 -12.1319 87.8485 -9.45494H71.1781ZM78.4177 -21.3892C74.6469 -22.0913 72.3008 -25.123 71.1781 -27.0054H87.8485C85.7192 -24.3285 81.9639 -20.7258 78.4177 -21.3892ZM55.0342 -30.2377V-41.4083C56.2111 -41.0457 58.0926 -40.5983 60.2529 -40.5983C62.5448 -40.5983 65.1619 -41.0997 67.5777 -42.7352C64.3876 -38.0448 65.4948 -32.6447 66.2459 -30.2377H55.0265H55.0342ZM51.7899 -30.2377H47.9727L45.2705 -32.9301L51.7899 -39.4257V-30.2377ZM40.6944 -32.9224L37.9921 -30.23H34.1749V-39.418L40.6944 -32.9224ZM30.9384 -30.2377H19.719C20.4701 -32.6447 21.5773 -38.0525 18.3872 -42.7352C20.803 -41.0997 23.4123 -40.5983 25.712 -40.5983C27.88 -40.5983 29.7615 -41.0457 30.9307 -41.4083V-30.2377H30.9384ZM7.55497 -21.3892C4.00874 -20.7335 0.253429 -24.3285 -1.87586 -27.0054H14.7945C13.6718 -25.123 11.3257 -22.0913 7.55497 -21.3892ZM7.55497 -15.0711C11.3257 -14.3691 13.6718 -11.3373 14.7945 -9.45494H-1.87586C0.253429 -12.1319 4.01648 -15.7345 7.55497 -15.0711ZM30.9384 -6.23029V4.94798C28.5226 4.19967 23.0949 3.09651 18.395 6.27487C21.585 1.58447 20.4778 -3.81567 19.7268 -6.22258H30.9462L30.9384 -6.23029ZM34.1749 -6.23029H37.9921L40.6944 -3.53794L34.1749 2.95764V-6.23029ZM42.9863 19.4898C43.8303 24.0259 48.1431 27.7828 50.4427 29.4954L42.9863 35.4124L35.5299 29.4954C37.8296 27.7828 42.1501 24.0259 42.9863 19.4898ZM53.3927 31.2852L62.2196 38.614L54.2909 65.5992L44.8833 38.0276L53.385 31.2852H53.3927ZM81.569 54.6678L89.6758 61.3948L90.8837 72.0099L59.9974 69.7419L81.5613 54.6678H81.569ZM93.0982 62.8682C94.1357 63.0148 95.5449 63.1614 97.1167 63.1614C99.8499 63.1614 103.048 62.714 105.471 61.0554C102.854 64.8586 103.241 70.5442 103.652 73.3754L94.1821 72.3031L93.1059 62.8682H93.0982ZM120.198 63.3543V82.5942L132.246 92.1447L143.946 82.8642L142.265 97.6219L155.916 111.223H138.146L108.143 75.358L120.198 63.3466V63.3543ZM125.107 100.677L102.08 105.244L114.19 87.624L125.107 100.677ZM127.469 103.5L135.304 112.866L128.669 121.174L104.108 108.137L127.476 103.5H127.469ZM156.806 114.455C155.684 116.337 153.338 119.369 149.567 120.071C146.021 120.735 142.265 117.132 140.136 114.455H156.806ZM149.575 126.389C153.345 127.091 155.691 130.123 156.814 132.005H140.144C142.273 129.328 146.036 125.726 149.575 126.389ZM172.958 135.238V146.416C170.535 145.668 165.115 144.565 160.407 147.743C163.597 143.052 162.49 137.652 161.739 135.245H172.958V135.238ZM176.195 135.238H180.012L182.714 137.93L176.195 144.426V135.238ZM187.298 137.922L190 135.23H193.817V144.418L187.298 137.922ZM211.169 136.889L222.954 148.63C219.547 149.023 214.336 148.915 212.3 145.961C210.132 142.806 210.627 139.01 211.169 136.889ZM220.437 126.389C223.976 125.726 227.739 129.328 229.868 132.005H213.198C214.32 130.123 216.667 127.091 220.437 126.389ZM232.911 130.663C231.192 128.372 227.421 124.075 222.869 123.234C227.421 122.393 231.192 118.088 232.911 115.797L238.85 123.234L232.911 130.663ZM224.154 94.7368C221.312 94.3279 215.59 93.9422 211.781 96.5574C214.406 92.7541 214.018 87.0608 213.608 84.2296L223.078 85.3019L224.154 94.7368ZM192.462 75.5046C190.163 77.2172 185.842 80.9741 185.006 85.5102C184.162 80.9741 179.849 77.2172 177.55 75.5046L185.006 69.5876L192.462 75.5046ZM180.151 41.8077C178.432 39.5165 174.654 35.2196 170.109 34.3787C174.661 33.5378 178.432 29.2331 180.151 26.9419L186.09 34.371L180.151 41.8077ZM171.402 5.88143C168.56 5.47256 162.838 5.08684 159.029 7.70204C161.653 3.8988 161.266 -1.79447 160.856 -4.62569L170.325 -3.55337L171.402 5.88143ZM139.71 -13.3508C137.411 -11.6381 133.098 -7.8812 132.254 -3.34509C131.41 -7.8812 127.097 -11.6381 124.797 -13.3508L132.254 -19.2678L139.71 -13.3508ZM103.652 -4.6334C103.241 -1.80219 102.854 3.8988 105.479 7.69433C101.662 5.07912 95.9475 5.46484 93.1059 5.87371L94.1821 -3.56109L103.652 -4.6334ZM90.8914 -10.7973C89.1725 -13.0885 85.4017 -17.3854 80.8489 -18.2263C85.4017 -19.0672 89.1725 -23.3719 90.8914 -25.6631L96.8302 -18.234L90.8914 -10.805V-10.7973ZM82.1342 -46.7236C79.2926 -47.1324 73.5706 -47.5182 69.7611 -44.903C72.386 -48.7062 71.9988 -54.3995 71.5884 -57.2307L81.058 -56.1584L82.1342 -46.7236ZM50.4427 -65.9635C48.1431 -64.2509 43.8225 -60.4939 42.9863 -55.9578C42.1423 -60.4939 37.8296 -64.2509 35.5299 -65.9635L42.9863 -71.8805L50.4427 -65.9635ZM14.3842 -57.2384C13.9738 -54.4072 13.5866 -48.7062 16.2115 -44.9107C12.3942 -47.5259 6.68001 -47.1402 3.83838 -46.7313L4.91465 -56.1661L14.3842 -57.2384ZM-4.9188 -25.6631C-3.19988 -23.3719 0.570894 -19.0749 5.1237 -18.2263C0.570894 -17.3854 -3.19988 -13.0885 -4.9188 -10.7973L-10.8576 -18.2263L-4.9188 -25.6553V-25.6631ZM3.83838 10.2633C4.87593 10.4098 6.28513 10.5564 7.85693 10.5564C10.5902 10.5564 13.7802 10.109 16.2115 8.45035C13.5944 12.2536 13.9815 17.9391 14.3919 20.7704L4.92238 19.6981L3.84613 10.2633H3.83838ZM94.7009 75.6126L105.131 76.7929L112.037 85.0474L99.695 102.999L94.7009 75.6048V75.6126ZM137.101 115.797C138.82 118.088 142.591 122.393 147.143 123.234C142.591 124.075 138.82 128.372 137.101 130.663L131.162 123.234L137.101 115.797ZM145.858 151.724C146.896 151.87 148.305 152.017 149.877 152.017C152.61 152.017 155.808 151.569 158.231 149.911C155.614 153.714 156.001 159.399 156.412 162.231L146.942 161.158L145.866 151.716L145.858 151.724ZM177.542 170.963C179.841 169.251 184.162 165.494 184.998 160.958C185.842 165.494 190.155 169.251 192.455 170.963L184.998 176.88L177.542 170.963ZM213.6 162.238C214.011 159.407 214.398 153.722 211.781 149.918C214.204 151.577 217.402 152.024 220.135 152.024C221.699 152.024 223.116 151.878 224.154 151.731L223.078 161.174L213.608 162.246L213.6 162.238Z" fill="#FFC36C" fill-opacity="0.25"/>
</g>
</svg>
