<svg width="33" height="33" viewBox="0 0 33 33" fill="none" xmlns="http://www.w3.org/2000/svg">
<path d="M29.0112 3.9082C25.4965 3.9082 20.1165 9.00154 16.5978 14.3282C13.0792 9.00287 7.69915 3.9082 4.18449 3.9082C1.93115 3.9082 1.93115 6.2642 1.93115 7.3962C1.93115 8.13087 2.37782 13.9455 2.70049 15.1429C3.28049 17.3055 4.70582 19.3162 6.84449 20.4069C6.10849 21.0095 5.57915 21.7189 5.31249 22.5215C5.00982 23.4282 4.79515 25.2509 6.75249 27.2709C8.31782 28.8855 9.76049 29.6709 11.1658 29.6709C13.4365 29.6709 15.3872 27.1242 16.5992 25.0602C17.8112 27.1242 19.7618 29.6709 22.0325 29.6709C23.4378 29.6709 24.8805 28.8855 26.4458 27.2709C28.4032 25.2522 28.1872 23.4295 27.8858 22.5215C27.6178 21.7189 27.0885 21.0095 26.3538 20.4069C28.4925 19.3162 29.9192 17.3055 30.4978 15.1429C30.8178 13.9455 31.2645 8.1322 31.2645 7.3962C31.2645 6.2642 31.2645 3.9082 29.0112 3.9082ZM27.9205 14.4522C27.3338 16.6389 25.4072 18.9535 21.9312 18.5109V21.2895C24.0818 21.7695 25.1245 22.6789 25.3538 23.3669C25.6005 24.1042 25.0418 24.8882 24.5285 25.4162C23.1898 26.7989 22.3885 27.0042 22.0298 27.0042C21.0125 27.0042 19.2112 24.5349 18.0672 22.1335H16.6178L16.5978 22.1429L16.5778 22.1335H15.1285C13.9832 24.5349 12.1832 27.0042 11.1658 27.0042C10.8072 27.0042 10.0072 26.7975 8.66715 25.4162C8.15515 24.8882 7.59649 24.1042 7.84182 23.3669C8.07115 22.6789 9.11382 21.7695 11.2645 21.2895V18.5109C7.78849 18.9535 5.86182 16.6389 5.27515 14.4522C5.06982 13.6882 4.59782 8.2842 4.59782 7.3962C4.59782 7.04954 4.60582 6.80287 4.61915 6.62687C6.98982 7.14954 11.8245 11.5642 15.0098 16.8002H16.4938H16.7018H18.1858C21.3712 11.5642 26.2045 7.14954 28.5765 6.62687C28.5898 6.80287 28.5978 7.05087 28.5978 7.3962C28.5978 8.2842 28.1258 13.6882 27.9205 14.4522Z" fill="#9D9D9D"/>
</svg>
