<svg width="33" height="33" viewBox="0 0 33 33" fill="none" xmlns="http://www.w3.org/2000/svg">
<path d="M13.7819 14.2244C12.8699 14.2244 12.1499 15.0244 12.1499 16.0004C12.1499 16.9764 12.8859 17.7764 13.7819 17.7764C14.6939 17.7764 15.4139 16.9764 15.4139 16.0004C15.4299 15.0244 14.6939 14.2244 13.7819 14.2244ZM19.6219 14.2244C18.7099 14.2244 17.9899 15.0244 17.9899 16.0004C17.9899 16.9764 18.7259 17.7764 19.6219 17.7764C20.5339 17.7764 21.2539 16.9764 21.2539 16.0004C21.2539 15.0244 20.5339 14.2244 19.6219 14.2244Z" fill="#98A2B3"/>
<path d="M27.3977 0.800293H5.95773C4.14973 0.800293 2.67773 2.27229 2.67773 4.09629V25.7283C2.67773 27.5523 4.14973 29.0243 5.95773 29.0243H24.1017L23.2537 26.0643L25.3017 27.9683L27.2377 29.7603L30.6777 32.8003V4.09629C30.6777 2.27229 29.2057 0.800293 27.3977 0.800293ZM21.2217 21.6963C21.2217 21.6963 20.6457 21.0083 20.1657 20.4003C22.2617 19.8083 23.0617 18.4963 23.0617 18.4963C22.4057 18.9283 21.7817 19.2323 21.2217 19.4403C20.4217 19.7763 19.6537 20.0003 18.9017 20.1283C17.3657 20.4163 15.9577 20.3363 14.7577 20.1123C13.8457 19.9363 13.0617 19.6803 12.4057 19.4243C12.0377 19.2803 11.6377 19.1043 11.2377 18.8803C11.1897 18.8483 11.1417 18.8323 11.0937 18.8003C11.0617 18.7843 11.0457 18.7683 11.0297 18.7523C10.7417 18.5923 10.5817 18.4803 10.5817 18.4803C10.5817 18.4803 11.3497 19.7603 13.3817 20.3683C12.9017 20.9763 12.3097 21.6963 12.3097 21.6963C8.77373 21.5843 7.42973 19.2643 7.42973 19.2643C7.42973 14.1123 9.73373 9.93629 9.73373 9.93629C12.0377 8.20829 14.2297 8.25629 14.2297 8.25629L14.3897 8.44829C11.5097 9.28029 10.1817 10.5443 10.1817 10.5443C10.1817 10.5443 10.5337 10.3523 11.1257 10.0803C12.8377 9.32829 14.1977 9.12029 14.7577 9.07229C14.8537 9.05629 14.9337 9.04029 15.0297 9.04029C16.0057 8.91229 17.1097 8.88029 18.2617 9.00829C19.7817 9.18429 21.4137 9.63229 23.0777 10.5443C23.0777 10.5443 21.8137 9.34429 19.0937 8.51229L19.3177 8.25629C19.3177 8.25629 21.5097 8.20829 23.8137 9.93629C23.8137 9.93629 26.1177 14.1123 26.1177 19.2643C26.1177 19.2643 24.7577 21.5843 21.2217 21.6963Z" fill="#9D9D9D"/>
</svg>
