<svg width="25" height="25" viewBox="0 0 25 25" fill="none" xmlns="http://www.w3.org/2000/svg">
<path d="M12.6047 2.96367C15.8128 2.96367 16.1927 2.97773 17.4544 3.03398C18.627 3.08555 19.2602 3.28242 19.6823 3.44648C20.2404 3.66211 20.6438 3.92461 21.0612 4.3418C21.4833 4.76367 21.7413 5.16211 21.957 5.71992C22.1212 6.1418 22.3182 6.7793 22.3698 7.94648C22.4261 9.21211 22.4401 9.5918 22.4401 12.7934C22.4401 15.9996 22.4261 16.3793 22.3698 17.6402C22.3182 18.8121 22.1212 19.4449 21.957 19.8668C21.7413 20.4246 21.4786 20.8277 21.0612 21.2449C20.6391 21.6668 20.2404 21.9246 19.6823 22.1402C19.2602 22.3043 18.6223 22.5012 17.4544 22.5527C16.188 22.609 15.8081 22.623 12.6047 22.623C9.39656 22.623 9.01665 22.609 7.75498 22.5527C6.58241 22.5012 5.94923 22.3043 5.52711 22.1402C4.96897 21.9246 4.56561 21.6621 4.14817 21.2449C3.72605 20.823 3.46809 20.4246 3.25234 19.8668C3.08818 19.4449 2.89119 18.8074 2.8396 17.6402C2.78331 16.3746 2.76924 15.9949 2.76924 12.7934C2.76924 9.58711 2.78331 9.20742 2.8396 7.94648C2.89119 6.77461 3.08818 6.1418 3.25234 5.71992C3.46809 5.16211 3.73074 4.75898 4.14817 4.3418C4.5703 3.91992 4.96897 3.66211 5.52711 3.44648C5.94923 3.28242 6.5871 3.08555 7.75498 3.03398C9.01665 2.97773 9.39656 2.96367 12.6047 2.96367ZM12.6047 0.802734C9.34497 0.802734 8.93692 0.816797 7.65648 0.873047C6.38073 0.929297 5.50366 1.13555 4.74384 1.43086C3.95118 1.74023 3.28048 2.14805 2.61446 2.81836C1.94376 3.48398 1.53571 4.1543 1.22615 4.9418C0.930664 5.70586 0.724293 6.57773 0.66801 7.85273C0.611727 9.13711 0.597656 9.54492 0.597656 12.8027C0.597656 16.0605 0.611727 16.4684 0.66801 17.748C0.724293 19.023 0.930664 19.8996 1.22615 20.659C1.53571 21.4512 1.94376 22.1215 2.61446 22.7871C3.28048 23.4527 3.95118 23.8652 4.73915 24.1699C5.50366 24.4652 6.37604 24.6715 7.65179 24.7277C8.93223 24.784 9.34028 24.798 12.6 24.798C15.8597 24.798 16.2678 24.784 17.5482 24.7277C18.824 24.6715 19.701 24.4652 20.4609 24.1699C21.2488 23.8652 21.9195 23.4527 22.5855 22.7871C23.2516 22.1215 23.6643 21.4512 23.9692 20.6637C24.2646 19.8996 24.471 19.0277 24.5273 17.7527C24.5836 16.473 24.5977 16.0652 24.5977 12.8074C24.5977 9.54961 24.5836 9.1418 24.5273 7.86211C24.471 6.58711 24.2646 5.71055 23.9692 4.95117C23.6737 4.1543 23.2656 3.48398 22.5949 2.81836C21.9289 2.15273 21.2582 1.74023 20.4702 1.43555C19.7057 1.14023 18.8333 0.933984 17.5576 0.877734C16.2725 0.816797 15.8644 0.802734 12.6047 0.802734Z" fill="#9D9D9D"/>
<path d="M12.6047 6.63867C9.19957 6.63867 6.43701 9.39961 6.43701 12.8027C6.43701 16.2059 9.19957 18.9668 12.6047 18.9668C16.0098 18.9668 18.7724 16.2059 18.7724 12.8027C18.7724 9.39961 16.0098 6.63867 12.6047 6.63867ZM12.6047 16.8012C10.3956 16.8012 8.60391 15.0105 8.60391 12.8027C8.60391 10.5949 10.3956 8.8043 12.6047 8.8043C14.8138 8.8043 16.6055 10.5949 16.6055 12.8027C16.6055 15.0105 14.8138 16.8012 12.6047 16.8012Z" fill="#9D9D9D"/>
<path d="M20.456 6.39414C20.456 7.19102 19.8087 7.83321 19.0161 7.83321C18.2187 7.83321 17.5762 7.18633 17.5762 6.39414C17.5762 5.59727 18.2234 4.95508 19.0161 4.95508C19.8087 4.95508 20.456 5.60195 20.456 6.39414Z" fill="#9D9D9D"/>
</svg>
