<svg width="144" height="92" viewBox="0 0 144 92" fill="none" xmlns="http://www.w3.org/2000/svg">
<path d="M6.80197 31.019H0V48.0589H6.80197V31.019Z" fill="#EFEFEF"/>
<path d="M17.2131 31.019H10.4111V48.0589H30.8323V42.6596H17.2131V31.019Z" fill="#EFEFEF"/>
<path d="M50.1476 36.8408H39.931V31.019H33.126V48.0589H39.931V42.2401H50.1476V48.0589H56.9618V31.019H50.1476V36.8408Z" fill="#EFEFEF"/>
<path d="M134.888 31.0253L128.071 39.5452L121.269 31.0253H116.776C115.487 26.9408 114.948 24.2576 114.948 23.2907C114.921 21.8569 115.119 21.2619 113.632 20.5688C112.146 19.8756 104.043 17.3411 104.043 17.3411C113.233 27.8839 115.758 37.8853 116.151 44.8136C116.218 45.9827 116.224 47.0656 116.191 48.0473C116.057 51.9443 115.311 54.2706 115.311 54.2706C113.663 62.8768 105.922 68.8473 105.922 68.8473C119.191 63.8675 121.762 47.488 119.557 39.0752V38.9711L126.371 48.0622H129.77L136.588 38.9711V48.0622H143.39V31.0253H134.888Z" fill="#EFEFEF"/>
<path d="M103.013 71.8422C102.928 71.6726 102.839 71.509 102.751 71.3454C102.24 70.4164 101.676 69.5156 101.063 68.6472L101.036 68.6086C99.1185 66.0415 96.8163 63.7711 94.2066 61.8735C87.6392 56.9859 83.7188 52.3243 81.5378 48.0822C80.7526 46.5792 80.1465 44.9931 79.7315 43.3552C77.1636 33.0831 84.252 26.2291 84.252 26.2291C75.7807 43.0845 88.0321 53.1721 94.1944 55.1534C93.7497 55.0106 96.5856 48.0793 96.8993 47.4397C97.8528 45.4941 99.0164 43.4474 100.695 42.0017C104.764 38.5062 107.003 44.2001 107.256 47.5319C107.734 53.779 106.787 60.1214 105.124 66.1632C108.554 61.1923 111.901 53.9664 111.77 44.7861C111.77 44.2298 111.743 43.6675 111.71 43.0964C110.528 23.4327 98.9738 17.5842 98.9738 17.5842C98.9994 18.4713 99.3106 19.328 99.8633 20.0325C104.478 27.2524 106.074 36.9444 106.074 36.9444C97.5604 33.8298 93.4786 44.679 91.5657 47.4991C88.9034 46.5413 84.328 41.3531 86.5426 31.2506C90.1979 17.5366 97.862 13.949 104.03 13.4968C107.098 13.3986 110.324 14.0531 113.132 14.8682C112.224 13.1507 111.317 11.4362 110.409 9.72473L111.883 10.2721C111.071 9.44508 110.259 8.61907 109.446 7.79405C110.029 7.99237 110.609 8.19069 111.186 8.38901C110.296 7.68398 109.401 6.98192 108.505 6.27391L109.967 6.60709C108.364 5.01536 106.415 3.79543 104.265 3.03729L106.647 3.24553C106.26 3.20984 105.642 2.71007 105.267 2.54646C104.835 2.36003 104.393 2.19344 103.942 2.04669C102.89 1.71382 101.803 1.49923 100.701 1.40709L101.919 0.865668C100.493 0.754629 99.0583 0.835708 97.6548 1.10663C97.9808 0.758574 98.3036 0.416471 98.6235 0.0684153L95.355 1.34461C95.6231 0.895412 95.8941 0.452175 96.1561 0C94.9803 0.71396 93.8442 1.46064 92.5435 1.95149C92.8481 1.52014 93.174 1.09176 93.4938 0.663382C91.5431 1.5621 89.8227 2.87527 88.4586 4.50686C88.1408 4.953 87.7685 5.3596 87.3498 5.71762C86.9027 6.01357 86.4285 6.26851 85.9333 6.47918C84.1727 7.37163 82.7471 9.01968 82.5217 10.9414C82.2963 12.8632 83.4964 14.9485 85.4003 15.4602C84.654 14.2881 85.7049 12.6103 87.0939 12.3218C88.7236 11.9826 90.399 13.0625 91.392 14.2911C91.6989 14.6556 91.8659 15.1132 91.8642 15.5851C91.8368 16.5847 90.9991 16.9268 90.2497 17.2362C84.1331 19.1163 77.7972 24.5424 75.339 31.8486L74.8973 31.0483H66.8069L57.4492 48.0852H65.1071L66.484 45.1699L68.4578 41.0051L70.8581 35.9717L73.2463 41.0051L74.9948 44.6939L75.2171 45.1639L76.3899 47.6449C77.1078 49.2811 77.9636 50.8563 78.9486 52.3541C80.74 54.9934 82.8408 57.4194 85.2084 59.5829C85.6836 60.0321 86.1649 60.4754 86.6492 60.9097C89.875 63.8191 93.244 66.5619 96.1439 69.8044C97.7791 71.5869 99.2092 73.5392 100.408 75.6262C101.452 77.4594 102.154 79.4587 102.483 81.5312C102.984 84.9426 102.914 88.4109 102.276 91.8004C102.276 91.8004 104.905 89.3788 105.352 81.6026C105.367 78.2856 104.602 75.0094 103.117 72.0266C103.077 71.9612 103.046 71.9017 103.013 71.8422Z" fill="#EFEFEF"/>
<path d="M96.9821 53.2847C95.7637 56.0692 96.2602 61.4626 100.5 60.9122C105.006 60.112 104.975 51.3451 102.005 57.3424C101.908 57.5435 101.76 57.7174 101.576 57.8482L101.551 57.866C101.401 57.9685 101.231 58.0401 101.051 58.0765C100.872 58.1128 100.686 58.113 100.506 58.0772C95.3464 57.0717 100.829 48.525 101.774 45.8804C99.5667 47.9176 97.9191 50.4637 96.9821 53.2847Z" fill="#EFEFEF"/>
</svg>
