<svg width="25" height="25" viewBox="0 0 25 25" fill="none" xmlns="http://www.w3.org/2000/svg">
<path d="M22.8211 0.800293H2.36953C1.38984 0.800293 0.597656 1.57373 0.597656 2.52998V23.0659C0.597656 24.0222 1.38984 24.8003 2.36953 24.8003H22.8211C23.8008 24.8003 24.5977 24.0222 24.5977 23.0706V2.52998C24.5977 1.57373 23.8008 0.800293 22.8211 0.800293ZM7.71797 21.2519H4.15547V9.7956H7.71797V21.2519ZM5.93672 8.23467C4.79297 8.23467 3.86953 7.31123 3.86953 6.17217C3.86953 5.03311 4.79297 4.10967 5.93672 4.10967C7.07578 4.10967 7.99922 5.03311 7.99922 6.17217C7.99922 7.30654 7.07578 8.23467 5.93672 8.23467ZM21.0492 21.2519H17.4914V15.6831C17.4914 14.3565 17.468 12.6456 15.6398 12.6456C13.7883 12.6456 13.507 14.094 13.507 15.5894V21.2519H9.95391V9.7956H13.3664V11.3612H13.4133C13.8867 10.4612 15.0492 9.50967 16.7789 9.50967C20.3836 9.50967 21.0492 11.8815 21.0492 14.9659V21.2519Z" fill="#9D9D9D"/>
</svg>
