<svg width="179" height="458" viewBox="0 0 179 458" fill="none" xmlns="http://www.w3.org/2000/svg">
<path d="M121.482 0.0424916L118.734 2.62641C126.456 3.66883 133.899 4.3628 141.143 7.76914C137.73 10.4047 139.388 11.6007 142.097 12.717C148.284 15.264 153.919 18.8401 159.095 23.2771C160.102 24.1408 161.585 24.3682 159.618 25.9082C158.834 26.5225 158.952 27.8277 159.794 28.6088C162.137 30.7793 163.014 34.4957 164.595 36.331C168.496 40.8625 167.113 46.835 170.267 51.4004C173.558 56.1696 175.534 61.9679 178.551 68.2919C172.913 67.025 168.004 65.9028 163.088 64.8206C132.272 58.0389 105.819 66.1214 84.3905 91.1795C69.8078 108.23 61.9091 128.859 55.8558 150.646C52.0503 164.349 51.2618 178.314 52.5026 192.155C54.1073 210.047 59.6612 226.58 74.3587 237.612C79.9168 241.785 80.4176 241.531 83.7569 234.807C89.1518 223.943 94.5065 213.037 101.846 203.474C107.693 195.856 114.198 188.977 123.135 185.498C130.623 182.583 138.139 182.573 145.683 185.469C146.821 185.912 148.441 186.736 149.133 186.247C150.089 185.571 149.677 183.789 149.396 182.451C145.488 163.847 141.096 145.39 134.344 127.672C130.263 116.964 125.798 106.451 119.797 96.7637C118.276 94.2979 117.071 91.6712 116.477 87.94C129.884 97.5019 139.682 109.561 147.74 123.354C161.1 146.202 168.269 171.263 171.654 197.81C173.435 211.77 174.088 225.771 173.328 239.734C172.148 262.016 167.064 283.865 158.342 304.147C155.445 310.901 152.699 317.752 147.888 324.718C149.556 315.184 151.069 306.839 152.471 298.475C155.168 282.456 155.576 266.286 155.395 250.053C155.313 242.774 155.257 235.52 153.382 228.486C151.623 221.887 149.537 215.51 145.096 210.13C137.409 200.814 130.128 202.304 122.236 209.579C111.285 219.673 105.267 233.228 100.103 247.202C96.8401 256.033 93.2463 264.773 91.3651 274.139C90.6361 277.765 88.3771 275.754 87.0159 275.089C80.3858 271.85 74.2481 267.689 68.5143 262.892C53.3603 250.213 42.6466 234.086 36.733 214.583C32.496 200.608 32.247 186.234 33.9665 171.652C35.5932 157.816 40.2107 145.112 45.1878 132.451C45.5613 131.5 47.0207 130.592 45.4921 129.557C44.2001 128.683 43.3258 129.356 42.3478 130.612C35.8463 138.946 30.4944 148.057 26.7775 158.106C22.7922 168.885 20.0836 180.012 19.7779 191.759C19.1679 215.281 26.3196 236.261 37.9587 255.717C52.1984 279.52 71.3792 298.275 92.2476 315.277C117.19 335.6 135.557 360.831 141.665 394.384C144.925 412.297 143.341 430.237 138.097 447.633C135.571 456.012 135.254 455.902 132.905 457.758C133.076 450.49 134.419 443.46 134.401 436.292C134.333 408.731 126.024 384.466 109.901 362.948C95.8912 344.262 79.3704 328.318 62.692 312.534C42.0809 293.02 23.517 271.767 11.6386 244.849C1.77019 222.484 -6.52261 181.631 7.31866 151.501C18.9494 121.862 38.8952 100.886 66.1655 87.6299C69.4398 86.0397 72.8981 84.888 76.2111 83.3805C81.9047 80.7906 84.0198 75.9978 81.7221 70.0415C79.0841 63.2111 66.7617 53.5724 57.9473 56.775C51.4113 59.1492 48.4095 63.8446 48.1743 70.9909C37.3071 64.6832 34.8324 49.9195 43.366 38.5074C46.7385 33.9966 50.7431 30.1562 55.9318 27.9724C60.1869 26.1814 63.1485 22.7337 65.9164 18.9804C69.9487 13.5173 74.5814 8.68311 80.1644 4.99328C81.2102 4.30226 81.3831 4.29636 81.8576 5.86295C82.4109 7.68498 83.2257 6.57906 83.9325 6.22617C87.8805 4.26978 91.8091 2.27352 95.9299 0.199003C95.5329 2.23365 94.7528 4.53555 97.9869 2.89513C99.3993 2.17902 100.863 1.56626 102.318 0.952031C103.806 0.321555 104.808 -1.07376 106.617 1.54264C107.908 3.40158 111.337 1.03767 113.777 0.636053C116.141 0.247727 118.429 -0.128785 121.482 0.0424916Z" fill="#2B2A2A"/>
<path d="M137 280.96C137.682 293.76 131.998 303.296 122.829 306.382C114.436 309.208 108.201 303.198 105.743 296.591C102.57 288.068 103.171 279.429 105.829 270.985C109.037 260.797 113.69 251.325 119.523 242.546C120.027 241.788 120.872 241.291 122.28 240.022C119.391 247.405 116.747 253.881 114.304 260.446C111.625 267.633 109.525 274.969 110.446 282.889C111.157 289.003 115.028 293.749 120.308 294.915C125.794 296.127 127.849 294.67 131.576 287.583C132.825 285.202 133.785 282.372 137 280.96Z" fill="#2B2A2A"/>
</svg>
