<svg width="33" height="33" viewBox="0 0 33 33" fill="none" xmlns="http://www.w3.org/2000/svg">
<g clip-path="url(#clip0_1801_11257)">
<path d="M32.2789 10.4004C32.2789 10.4004 31.9664 8.19419 31.0039 7.22544C29.7852 5.95044 28.4227 5.94419 27.7977 5.86919C23.3227 5.54419 16.6039 5.54419 16.6039 5.54419H16.5914C16.5914 5.54419 9.87266 5.54419 5.39766 5.86919C4.77266 5.94419 3.41016 5.95044 2.19141 7.22544C1.22891 8.19419 0.922656 10.4004 0.922656 10.4004C0.922656 10.4004 0.597656 12.9942 0.597656 15.5817V18.0067C0.597656 20.5942 0.916406 23.1879 0.916406 23.1879C0.916406 23.1879 1.22891 25.3942 2.18516 26.3629C3.40391 27.6379 5.00391 27.5942 5.71641 27.7317C8.27891 27.9754 16.5977 28.0504 16.5977 28.0504C16.5977 28.0504 23.3227 28.0379 27.7977 27.7192C28.4227 27.6442 29.7852 27.6379 31.0039 26.3629C31.9664 25.3942 32.2789 23.1879 32.2789 23.1879C32.2789 23.1879 32.5977 20.6004 32.5977 18.0067V15.5817C32.5977 12.9942 32.2789 10.4004 32.2789 10.4004ZM13.2914 20.9504V11.9567L21.9352 16.4692L13.2914 20.9504Z" fill="#9D9D9D"/>
</g>
<defs>
<clipPath id="clip0_1801_11257">
<rect width="32" height="32" fill="white" transform="translate(0.597656 0.800293)"/>
</clipPath>
</defs>
</svg>
